G04 Generated by Ultiboard 14.2 *
%FSLAX24Y24*%
%MOIN*%

%ADD10C,0.0001*%
%ADD11C,0.0100*%
%ADD12C,0.0200*%
%ADD13C,0.0050*%
%ADD14C,0.0394*%
%ADD15R,0.0417X0.0108*%
%ADD16C,0.0167*%
%ADD17R,0.0108X0.0417*%
%ADD18R,0.0467X0.0225*%
%ADD19C,0.0633*%
%ADD20R,0.0208X0.0208*%
%ADD21C,0.0392*%
%ADD22R,0.0236X0.0610*%
%ADD23C,0.0560*%
%ADD24R,0.0650X0.1260*%
%ADD25R,0.0250X0.0483*%
%ADD26C,0.0233*%
%ADD27R,0.0315X0.0079*%
%ADD28C,0.0079*%


G04 ColorRGB 00C000 for the following layer *
%LNCopper Top*%
%LPD*%
G54D10*
G36*
X1708Y30251D02*
X1708Y30251D01*
X14892Y30251D01*
G75*
D01*
G02X14900Y30251I8J-151*
G01*
G75*
D01*
G03X15749Y31100I0J849*
G01*
G74*
D01*
G02X15750Y31108I151J0*
G01*
X15750Y31108D01*
X15750Y37092D01*
G75*
D01*
G02X15749Y37100I150J8*
G01*
G74*
D01*
G03X14900Y37949I849J0*
G01*
G75*
D01*
G02X14892Y37949I0J151*
G01*
X14892Y37949D01*
X1708Y37949D01*
X1700Y37949D01*
G75*
D01*
G03X851Y37100I0J-849*
G01*
G75*
D01*
G02X851Y37092I-151J0*
G01*
X851Y37092D01*
X851Y31108D01*
X851Y31100D01*
G75*
D01*
G03X1700Y30251I849J0*
G01*
X1708Y30251D01*
D02*
G37*
%LPC*%
G36*
X9717Y35930D02*
X9717Y35930D01*
X10183Y35930D01*
G74*
D01*
G02X10418Y35696I0J234*
G01*
X10418Y35696D01*
X10418Y35471D01*
G75*
D01*
G02X10183Y35236I-235J0*
G01*
X10183Y35236D01*
X9717Y35236D01*
G75*
D01*
G02X9534Y35324I0J235*
G01*
X9534Y35324D01*
X9285Y35324D01*
G74*
D01*
G02X9158Y35286I127J197*
G01*
X9158Y35286D01*
X9101Y35286D01*
X9101Y35114D01*
X9158Y35114D01*
G74*
D01*
G02X9393Y34879I0J235*
G01*
X9393Y34879D01*
X9393Y34771D01*
G75*
D01*
G02X9158Y34536I-235J0*
G01*
X9158Y34536D01*
X8742Y34536D01*
G75*
D01*
G02X8507Y34771I0J235*
G01*
X8507Y34771D01*
X8507Y34879D01*
G74*
D01*
G02X8599Y35065I235J0*
G01*
X8599Y35065D01*
X8599Y35335D01*
G75*
D01*
G02X8507Y35521I143J186*
G01*
X8507Y35521D01*
X8507Y35629D01*
G75*
D01*
G02X8742Y35864I235J0*
G01*
X8742Y35864D01*
X9158Y35864D01*
G74*
D01*
G02X9285Y35826I0J235*
G01*
X9285Y35826D01*
X9522Y35826D01*
G75*
D01*
G02X9717Y35930I195J-130*
G01*
D02*
G37*
G36*
X9717Y34430D02*
X9717Y34430D01*
X10183Y34430D01*
G74*
D01*
G02X10418Y34196I0J234*
G01*
X10418Y34196D01*
X10418Y33971D01*
G75*
D01*
G02X10183Y33736I-235J0*
G01*
X10183Y33736D01*
X9717Y33736D01*
G75*
D01*
G02X9534Y33824I0J235*
G01*
X9534Y33824D01*
X9285Y33824D01*
G74*
D01*
G02X9158Y33786I127J197*
G01*
X9158Y33786D01*
X8742Y33786D01*
G75*
D01*
G02X8582Y33849I0J235*
G01*
X8582Y33849D01*
X8339Y33849D01*
G75*
D01*
G02X8339Y34351I-239J251*
G01*
X8339Y34351D01*
X8666Y34351D01*
G75*
D01*
G02X8742Y34364I76J-222*
G01*
X8742Y34364D01*
X9158Y34364D01*
G74*
D01*
G02X9285Y34326I0J235*
G01*
X9285Y34326D01*
X9522Y34326D01*
G75*
D01*
G02X9717Y34430I195J-130*
G01*
D02*
G37*
G36*
X10087Y32543D02*
G75*
D01*
G02X10090Y32543I3J-252*
G01*
X10090Y32543D01*
X11409Y32543D01*
G75*
D01*
G02X11407Y32571I233J28*
G01*
X11407Y32571D01*
X11407Y32679D01*
G75*
D01*
G02X11642Y32914I235J0*
G01*
X11642Y32914D01*
X12058Y32914D01*
G74*
D01*
G02X12293Y32679I0J235*
G01*
X12293Y32679D01*
X12293Y32571D01*
G75*
D01*
G02X12072Y32337I-235J0*
G01*
X12072Y32337D01*
X12072Y31628D01*
G74*
D01*
G02X12214Y31392I126J236*
G01*
X12214Y31392D01*
X12214Y30908D01*
G75*
D01*
G02X11946Y30640I-268J0*
G01*
X11946Y30640D01*
X11696Y30640D01*
G75*
D01*
G02X11428Y30908I0J268*
G01*
X11428Y30908D01*
X11428Y31392D01*
G74*
D01*
G02X11570Y31628I268J0*
G01*
X11570Y31628D01*
X11570Y32040D01*
X10194Y32040D01*
X10050Y31896D01*
X10050Y31671D01*
G75*
D01*
G02X10050Y30929I-252J-371*
G01*
X10050Y30929D01*
X10050Y30900D01*
G75*
D01*
G02X9976Y30722I-252J0*
G01*
X9976Y30722D01*
X9701Y30448D01*
G74*
D01*
G02X9523Y30374I178J177*
G01*
X9523Y30374D01*
X8116Y30374D01*
G74*
D01*
G02X7933Y30286I183J147*
G01*
X7933Y30286D01*
X7467Y30286D01*
G75*
D01*
G02X7284Y30374I0J235*
G01*
X7284Y30374D01*
X7035Y30374D01*
G74*
D01*
G02X6908Y30336I127J197*
G01*
X6908Y30336D01*
X6492Y30336D01*
G75*
D01*
G02X6257Y30571I0J235*
G01*
X6257Y30571D01*
X6257Y30679D01*
G75*
D01*
G02X6492Y30914I235J0*
G01*
X6492Y30914D01*
X6908Y30914D01*
G74*
D01*
G02X7035Y30876I0J235*
G01*
X7035Y30876D01*
X7272Y30876D01*
G75*
D01*
G02X7467Y30980I195J-130*
G01*
X7467Y30980D01*
X7933Y30980D01*
G74*
D01*
G02X8128Y30876I0J234*
G01*
X8128Y30876D01*
X8751Y30876D01*
G75*
D01*
G02X8746Y31722I146J424*
G01*
X8746Y31722D01*
X8746Y32736D01*
G75*
D01*
G02X8686Y32892I175J156*
G01*
X8686Y32892D01*
X8686Y33308D01*
G75*
D01*
G02X8921Y33543I235J0*
G01*
X8921Y33543D01*
X9029Y33543D01*
G74*
D01*
G02X9264Y33308I0J235*
G01*
X9264Y33308D01*
X9264Y32892D01*
G75*
D01*
G02X9248Y32808I-235J0*
G01*
X9248Y32808D01*
X9248Y31578D01*
G75*
D01*
G02X9042Y30876I-351J-278*
G01*
X9042Y30876D01*
X9419Y30876D01*
X9505Y30962D01*
G75*
D01*
G02X9547Y31671I293J338*
G01*
X9547Y31671D01*
X9547Y31999D01*
G75*
D01*
G02X9621Y32178I251J1*
G01*
X9621Y32178D01*
X9912Y32469D01*
G74*
D01*
G02X10087Y32543I178J178*
G01*
D02*
G37*
G36*
X14040Y37000D02*
G75*
D01*
G02X14040Y37000I760J0*
G01*
D02*
G37*
G36*
X14040Y31200D02*
G75*
D01*
G02X14040Y31200I760J0*
G01*
D02*
G37*
G36*
X13151Y32340D02*
X13151Y32340D01*
X13151Y31616D01*
G74*
D01*
G02X13272Y31392I147J224*
G01*
X13272Y31392D01*
X13272Y30908D01*
G75*
D01*
G02X13004Y30640I-268J0*
G01*
X13004Y30640D01*
X12754Y30640D01*
G75*
D01*
G02X12486Y30908I0J268*
G01*
X12486Y30908D01*
X12486Y31392D01*
G74*
D01*
G02X12649Y31638I268J0*
G01*
X12649Y31638D01*
X12649Y32340D01*
G75*
D01*
G02X12457Y32571I43J231*
G01*
X12457Y32571D01*
X12457Y32679D01*
G75*
D01*
G02X12692Y32914I235J0*
G01*
X12692Y32914D01*
X13108Y32914D01*
G74*
D01*
G02X13343Y32679I0J235*
G01*
X13343Y32679D01*
X13343Y32571D01*
G75*
D01*
G02X13151Y32340I-235J0*
G01*
D02*
G37*
G36*
X10490Y31300D02*
G75*
D01*
G02X10490Y31300I210J0*
G01*
D02*
G37*
G36*
X11109Y31484D02*
G75*
D01*
G02X11109Y31116I-409J-184*
G01*
X11109Y31116D01*
X10925Y31300D01*
X11109Y31484D01*
D02*
G37*
G36*
X10884Y30891D02*
G75*
D01*
G02X10516Y30891I-184J409*
G01*
X10516Y30891D01*
X10700Y31075D01*
X10884Y30891D01*
D02*
G37*
G36*
X10291Y31484D02*
X10291Y31484D01*
X10475Y31300D01*
X10291Y31116D01*
G75*
D01*
G02X10291Y31484I409J184*
G01*
D02*
G37*
G36*
X10516Y31709D02*
G75*
D01*
G02X10884Y31709I184J-409*
G01*
X10884Y31709D01*
X10700Y31525D01*
X10516Y31709D01*
D02*
G37*
G36*
X14531Y34349D02*
X14531Y34349D01*
X14229Y34349D01*
X13341Y33460D01*
G74*
D01*
G02X13343Y33429I233J31*
G01*
X13343Y33429D01*
X13343Y33321D01*
G75*
D01*
G02X13108Y33086I-235J0*
G01*
X13108Y33086D01*
X12692Y33086D01*
G75*
D01*
G02X12565Y33124I0J235*
G01*
X12565Y33124D01*
X12185Y33124D01*
G74*
D01*
G02X12058Y33086I127J197*
G01*
X12058Y33086D01*
X11642Y33086D01*
G75*
D01*
G02X11515Y33124I0J235*
G01*
X11515Y33124D01*
X11234Y33124D01*
G75*
D01*
G02X11138Y33143I0J251*
G01*
G74*
D01*
G02X11056Y33197I96J232*
G01*
X11056Y33197D01*
X10774Y33479D01*
X10743Y33479D01*
G75*
D01*
G02X10552Y33669I0J190*
G01*
X10552Y33669D01*
X10552Y33748D01*
G75*
D01*
G02X10743Y33938I191J0*
G01*
X10743Y33938D01*
X10798Y33938D01*
G75*
D01*
G02X11002Y33938I102J-229*
G01*
X11002Y33938D01*
X11057Y33938D01*
G74*
D01*
G02X11248Y33748I0J190*
G01*
X11248Y33748D01*
X11248Y33716D01*
X11338Y33626D01*
X11515Y33626D01*
G75*
D01*
G02X11642Y33664I127J-197*
G01*
X11642Y33664D01*
X11649Y33664D01*
X11649Y34276D01*
X11575Y34276D01*
G75*
D01*
G02X11424Y34427I0J151*
G01*
X11424Y34427D01*
X11424Y35687D01*
G75*
D01*
G02X11575Y35837I151J0*
G01*
X11575Y35837D01*
X12225Y35837D01*
G74*
D01*
G02X12376Y35687I0J150*
G01*
X12376Y35687D01*
X12376Y34427D01*
G75*
D01*
G02X12225Y34276I-151J0*
G01*
X12225Y34276D01*
X12151Y34276D01*
X12151Y33644D01*
G74*
D01*
G02X12185Y33626I93J215*
G01*
X12185Y33626D01*
X12565Y33626D01*
G75*
D01*
G02X12692Y33664I127J-197*
G01*
X12692Y33664D01*
X12833Y33664D01*
X13947Y34778D01*
G74*
D01*
G02X14043Y34837I178J178*
G01*
G75*
D01*
G02X14125Y34851I82J-237*
G01*
X14125Y34851D01*
X14531Y34851D01*
G75*
D01*
G02X14846Y35052I315J-147*
G01*
X14846Y35052D01*
X15054Y35052D01*
G74*
D01*
G02X15402Y34704I0J348*
G01*
X15402Y34704D01*
X15402Y34496D01*
G75*
D01*
G02X15054Y34148I-348J0*
G01*
X15054Y34148D01*
X14846Y34148D01*
G75*
D01*
G02X14531Y34349I0J348*
G01*
D02*
G37*
G36*
X11518Y36374D02*
G75*
D01*
G02X11424Y36513I57J139*
G01*
X11424Y36513D01*
X11424Y37773D01*
G75*
D01*
G02X11575Y37924I151J0*
G01*
X11575Y37924D01*
X12225Y37924D01*
G74*
D01*
G02X12376Y37773I0J151*
G01*
X12376Y37773D01*
X12376Y36513D01*
G75*
D01*
G02X12225Y36363I-151J0*
G01*
X12225Y36363D01*
X12148Y36363D01*
G74*
D01*
G02X12077Y36222I248J37*
G01*
X12077Y36222D01*
X11778Y35923D01*
G74*
D01*
G02X11600Y35849I178J177*
G01*
X11600Y35849D01*
X11339Y35849D01*
G75*
D01*
G02X11339Y36351I-239J251*
G01*
X11339Y36351D01*
X11496Y36351D01*
X11518Y36374D01*
D02*
G37*
G36*
X14483Y33600D02*
G75*
D01*
G02X14483Y33600I467J0*
G01*
D02*
G37*
G36*
X10183Y34470D02*
X10183Y34470D01*
X10073Y34470D01*
X10073Y34694D01*
X10418Y34694D01*
G74*
D01*
G02X10183Y34470I235J10*
G01*
D02*
G37*
G36*
X10418Y34940D02*
X10418Y34940D01*
X10073Y34940D01*
X10073Y35164D01*
X10183Y35164D01*
G74*
D01*
G02X10418Y34940I0J235*
G01*
D02*
G37*
G36*
X10183Y35970D02*
X10183Y35970D01*
X10073Y35970D01*
X10073Y36194D01*
X10418Y36194D01*
G74*
D01*
G02X10183Y35970I235J10*
G01*
D02*
G37*
G36*
X10418Y36440D02*
X10418Y36440D01*
X10073Y36440D01*
X10073Y36664D01*
X10183Y36664D01*
G74*
D01*
G02X10418Y36440I0J235*
G01*
D02*
G37*
G36*
X6468Y37290D02*
X6468Y37290D01*
X6123Y37290D01*
X6123Y37514D01*
X6233Y37514D01*
G74*
D01*
G02X6468Y37290I0J235*
G01*
D02*
G37*
G36*
X9717Y36664D02*
X9717Y36664D01*
X9827Y36664D01*
X9827Y36440D01*
X9482Y36440D01*
G75*
D01*
G02X9717Y36664I235J-11*
G01*
D02*
G37*
G36*
X6233Y36820D02*
X6233Y36820D01*
X6123Y36820D01*
X6123Y37044D01*
X6468Y37044D01*
G74*
D01*
G02X6233Y36820I235J10*
G01*
D02*
G37*
G36*
X3049Y34540D02*
G75*
D01*
G02X2857Y34771I43J231*
G01*
X2857Y34771D01*
X2857Y34879D01*
G75*
D01*
G02X3092Y35114I235J0*
G01*
X3092Y35114D01*
X3508Y35114D01*
G74*
D01*
G02X3635Y35076I0J235*
G01*
X3635Y35076D01*
X3721Y35076D01*
X3749Y35104D01*
X3749Y36100D01*
G75*
D01*
G02X3822Y36278I251J0*
G01*
X3822Y36278D01*
X4122Y36578D01*
G74*
D01*
G02X4281Y36650I178J178*
G01*
G75*
D01*
G02X4596Y36852I315J-146*
G01*
X4596Y36852D01*
X4804Y36852D01*
G74*
D01*
G02X5152Y36504I0J348*
G01*
X5152Y36504D01*
X5152Y36296D01*
G75*
D01*
G02X4804Y35948I-348J0*
G01*
X4804Y35948D01*
X4596Y35948D01*
G75*
D01*
G02X4329Y36074I0J348*
G01*
X4329Y36074D01*
X4251Y35996D01*
X4251Y35528D01*
G75*
D01*
G02X5108Y35627I449J-128*
G01*
G74*
D01*
G02X5178Y35577I108J227*
G01*
X5178Y35577D01*
X5704Y35051D01*
X6496Y35051D01*
X6552Y35107D01*
X6332Y35107D01*
G75*
D01*
G02X6200Y35185I0J151*
G01*
G74*
D01*
G02X6068Y35107I132J73*
G01*
X6068Y35107D01*
X5832Y35107D01*
G75*
D01*
G02X5681Y35258I0J151*
G01*
X5681Y35258D01*
X5681Y35868D01*
G74*
D01*
G02X5699Y35939I151J0*
G01*
X5699Y35939D01*
X5699Y36096D01*
G75*
D01*
G02X5532Y36321I68J225*
G01*
X5532Y36321D01*
X5532Y36346D01*
X4929Y36949D01*
X4104Y36949D01*
X3551Y36396D01*
X3551Y35860D01*
G74*
D01*
G02X3743Y35629I43J231*
G01*
X3743Y35629D01*
X3743Y35521D01*
G75*
D01*
G02X3508Y35286I-235J0*
G01*
X3508Y35286D01*
X3092Y35286D01*
G75*
D01*
G02X2965Y35324I0J235*
G01*
X2965Y35324D01*
X2280Y35324D01*
X2052Y35096D01*
X2052Y34996D01*
G75*
D01*
G02X1704Y34648I-348J0*
G01*
X1704Y34648D01*
X1496Y34648D01*
G75*
D01*
G02X1148Y34996I0J348*
G01*
X1148Y34996D01*
X1148Y35204D01*
G75*
D01*
G02X1496Y35552I348J0*
G01*
X1496Y35552D01*
X1704Y35552D01*
G74*
D01*
G02X1787Y35542I0J348*
G01*
X1787Y35542D01*
X1998Y35753D01*
G74*
D01*
G02X2116Y35819I178J178*
G01*
G75*
D01*
G02X2176Y35826I60J-244*
G01*
X2176Y35826D01*
X2965Y35826D01*
G74*
D01*
G02X3049Y35860I127J197*
G01*
X3049Y35860D01*
X3049Y36500D01*
G75*
D01*
G02X3122Y36678I251J0*
G01*
X3122Y36678D01*
X3822Y37378D01*
G74*
D01*
G02X3911Y37435I178J178*
G01*
G75*
D01*
G02X4000Y37451I89J-235*
G01*
X4000Y37451D01*
X5033Y37451D01*
G75*
D01*
G02X5116Y37437I0J-251*
G01*
G74*
D01*
G02X5211Y37377I83J237*
G01*
X5211Y37377D01*
X5545Y37044D01*
X5877Y37044D01*
X5877Y36820D01*
X5769Y36820D01*
X5808Y36780D01*
X6233Y36780D01*
G74*
D01*
G02X6468Y36546I0J234*
G01*
X6468Y36546D01*
X6468Y36390D01*
X6557Y36479D01*
X6557Y36479D01*
G75*
D01*
G02X6792Y36714I235J0*
G01*
X6792Y36714D01*
X7208Y36714D01*
G74*
D01*
G02X7443Y36479I0J235*
G01*
X7443Y36479D01*
X7443Y36371D01*
G75*
D01*
G02X7208Y36136I-235J0*
G01*
X7208Y36136D01*
X6925Y36136D01*
X6805Y36016D01*
G75*
D01*
G02X6832Y36019I27J-148*
G01*
X6832Y36019D01*
X7068Y36019D01*
G74*
D01*
G02X7200Y35941I0J151*
G01*
G75*
D01*
G02X7332Y36019I132J-73*
G01*
X7332Y36019D01*
X7568Y36019D01*
G74*
D01*
G02X7719Y35868I0J151*
G01*
X7719Y35868D01*
X7719Y35258D01*
G75*
D01*
G02X7701Y35187I-151J0*
G01*
X7701Y35187D01*
X7701Y34550D01*
G75*
D01*
G02X7627Y34372I-251J0*
G01*
X7627Y34372D01*
X7278Y34023D01*
G74*
D01*
G02X7100Y33949I178J177*
G01*
X7100Y33949D01*
X5804Y33949D01*
X5156Y33301D01*
G75*
D01*
G02X4251Y33272I-456J99*
G01*
X4251Y33272D01*
X4251Y32704D01*
X4304Y32651D01*
X4307Y32651D01*
G75*
D01*
G02X4307Y32149I393J-251*
G01*
X4307Y32149D01*
X4200Y32149D01*
G75*
D01*
G02X4022Y32222I0J251*
G01*
X4022Y32222D01*
X3822Y32422D01*
G75*
D01*
G02X3749Y32600I178J178*
G01*
X3749Y32600D01*
X3749Y33696D01*
X3626Y33818D01*
G74*
D01*
G02X3508Y33786I118J203*
G01*
X3508Y33786D01*
X3092Y33786D01*
G75*
D01*
G02X2857Y34021I0J235*
G01*
X2857Y34021D01*
X2857Y34129D01*
G74*
D01*
G02X3049Y34360I235J0*
G01*
X3049Y34360D01*
X3049Y34540D01*
D02*
G37*
G36*
X1040Y31200D02*
G75*
D01*
G02X1040Y31200I760J0*
G01*
D02*
G37*
G36*
X1040Y37000D02*
G75*
D01*
G02X1040Y37000I760J0*
G01*
D02*
G37*
G36*
X3550Y33610D02*
X3550Y33610D01*
X3300Y33447D01*
X3050Y33610D01*
G75*
D01*
G02X3092Y33614I42J-231*
G01*
X3092Y33614D01*
X3508Y33614D01*
G74*
D01*
G02X3550Y33610I0J235*
G01*
D02*
G37*
G36*
X7272Y31124D02*
X7272Y31124D01*
X7035Y31124D01*
G74*
D01*
G02X6908Y31086I127J197*
G01*
X6908Y31086D01*
X6492Y31086D01*
G75*
D01*
G02X6365Y31124I0J235*
G01*
X6365Y31124D01*
X6035Y31124D01*
G74*
D01*
G02X5908Y31086I127J197*
G01*
X5908Y31086D01*
X5492Y31086D01*
G75*
D01*
G02X5257Y31321I0J235*
G01*
X5257Y31321D01*
X5257Y31429D01*
G75*
D01*
G02X5492Y31664I235J0*
G01*
X5492Y31664D01*
X5908Y31664D01*
G74*
D01*
G02X6035Y31626I0J235*
G01*
X6035Y31626D01*
X6365Y31626D01*
G75*
D01*
G02X6492Y31664I127J-197*
G01*
X6492Y31664D01*
X6533Y31664D01*
X6699Y31829D01*
X6699Y32516D01*
G75*
D01*
G02X6201Y32624I-199J284*
G01*
X6201Y32624D01*
X6201Y32583D01*
G75*
D01*
G02X5699Y32472I-201J-283*
G01*
X5699Y32472D01*
X5699Y33061D01*
G75*
D01*
G02X5681Y33132I133J71*
G01*
X5681Y33132D01*
X5681Y33742D01*
G75*
D01*
G02X5832Y33893I151J0*
G01*
X5832Y33893D01*
X6068Y33893D01*
G74*
D01*
G02X6200Y33815I0J151*
G01*
G75*
D01*
G02X6332Y33893I132J-73*
G01*
X6332Y33893D01*
X6568Y33893D01*
G74*
D01*
G02X6700Y33815I0J151*
G01*
G75*
D01*
G02X6832Y33893I132J-73*
G01*
X6832Y33893D01*
X7068Y33893D01*
G74*
D01*
G02X7200Y33815I0J151*
G01*
G75*
D01*
G02X7332Y33893I132J-73*
G01*
X7332Y33893D01*
X7355Y33893D01*
X7355Y33532D01*
X7219Y33532D01*
X7219Y33342D01*
X7355Y33342D01*
X7355Y32981D01*
X7332Y32981D01*
G75*
D01*
G02X7201Y33057I0J151*
G01*
X7201Y33057D01*
X7201Y31725D01*
G75*
D01*
G02X7181Y31626I-251J0*
G01*
X7181Y31626D01*
X7284Y31626D01*
G75*
D01*
G02X7467Y31714I183J-147*
G01*
X7467Y31714D01*
X7933Y31714D01*
G74*
D01*
G02X8168Y31479I0J235*
G01*
X8168Y31479D01*
X8168Y31254D01*
G75*
D01*
G02X7933Y31020I-235J0*
G01*
X7933Y31020D01*
X7467Y31020D01*
G75*
D01*
G02X7272Y31124I0J234*
G01*
D02*
G37*
G36*
X9482Y36194D02*
X9482Y36194D01*
X9827Y36194D01*
X9827Y35970D01*
X9717Y35970D01*
G75*
D01*
G02X9482Y36194I0J234*
G01*
D02*
G37*
G36*
X8599Y36565D02*
X8599Y36565D01*
X8599Y36746D01*
X8421Y36924D01*
X8335Y36924D01*
G74*
D01*
G02X8208Y36886I127J197*
G01*
X8208Y36886D01*
X7792Y36886D01*
G75*
D01*
G02X7665Y36924I0J235*
G01*
X7665Y36924D01*
X7335Y36924D01*
G74*
D01*
G02X7208Y36886I127J197*
G01*
X7208Y36886D01*
X6792Y36886D01*
G75*
D01*
G02X6557Y37121I0J235*
G01*
X6557Y37121D01*
X6557Y37229D01*
G75*
D01*
G02X6792Y37464I235J0*
G01*
X6792Y37464D01*
X7208Y37464D01*
G74*
D01*
G02X7335Y37426I0J235*
G01*
X7335Y37426D01*
X7665Y37426D01*
G75*
D01*
G02X7792Y37464I127J-197*
G01*
X7792Y37464D01*
X8208Y37464D01*
G74*
D01*
G02X8335Y37426I0J235*
G01*
X8335Y37426D01*
X8525Y37426D01*
G74*
D01*
G02X8703Y37352I0J251*
G01*
X8703Y37352D01*
X9027Y37028D01*
G74*
D01*
G02X9101Y36850I177J178*
G01*
X9101Y36850D01*
X9101Y36614D01*
X9158Y36614D01*
G74*
D01*
G02X9393Y36379I0J235*
G01*
X9393Y36379D01*
X9393Y36271D01*
G75*
D01*
G02X9158Y36036I-235J0*
G01*
X9158Y36036D01*
X8742Y36036D01*
G75*
D01*
G02X8507Y36271I0J235*
G01*
X8507Y36271D01*
X8507Y36379D01*
G74*
D01*
G02X8599Y36565I235J0*
G01*
D02*
G37*
G36*
X8421Y36577D02*
G74*
D01*
G02X8443Y36479I213J98*
G01*
X8443Y36479D01*
X8443Y36371D01*
G75*
D01*
G02X8421Y36273I-235J0*
G01*
X8421Y36273D01*
X8187Y36425D01*
X8421Y36577D01*
D02*
G37*
G36*
X8250Y36710D02*
X8250Y36710D01*
X8000Y36547D01*
X7750Y36710D01*
G75*
D01*
G02X7792Y36714I42J-231*
G01*
X7792Y36714D01*
X8208Y36714D01*
G74*
D01*
G02X8250Y36710I0J235*
G01*
D02*
G37*
G36*
X7579Y36577D02*
X7579Y36577D01*
X7813Y36425D01*
X7579Y36273D01*
G75*
D01*
G02X7557Y36371I213J98*
G01*
X7557Y36371D01*
X7557Y36479D01*
G74*
D01*
G02X7579Y36577I235J0*
G01*
D02*
G37*
G36*
X7750Y36140D02*
X7750Y36140D01*
X8000Y36303D01*
X8250Y36140D01*
G74*
D01*
G02X8208Y36136I42J231*
G01*
X8208Y36136D01*
X7792Y36136D01*
G75*
D01*
G02X7750Y36140I0J235*
G01*
D02*
G37*
G36*
X9717Y35164D02*
X9717Y35164D01*
X9827Y35164D01*
X9827Y34940D01*
X9482Y34940D01*
G75*
D01*
G02X9717Y35164I235J-11*
G01*
D02*
G37*
G36*
X9482Y34694D02*
X9482Y34694D01*
X9827Y34694D01*
X9827Y34470D01*
X9717Y34470D01*
G75*
D01*
G02X9482Y34694I0J234*
G01*
D02*
G37*
G36*
X7719Y33742D02*
X7719Y33742D01*
X7719Y33532D01*
X7545Y33532D01*
X7545Y33893D01*
X7568Y33893D01*
G74*
D01*
G02X7719Y33742I0J151*
G01*
D02*
G37*
G36*
X1133Y34100D02*
G75*
D01*
G02X1133Y34100I467J0*
G01*
D02*
G37*
G36*
X7568Y32981D02*
X7568Y32981D01*
X7545Y32981D01*
X7545Y33342D01*
X7719Y33342D01*
X7719Y33132D01*
G75*
D01*
G02X7568Y32981I-151J0*
G01*
D02*
G37*
G36*
X1765Y33536D02*
G74*
D01*
G02X2036Y33265I165J436*
G01*
X2036Y33265D01*
X1765Y33265D01*
X1765Y33536D01*
D02*
G37*
G36*
X1164Y33265D02*
G74*
D01*
G02X1435Y33536I436J165*
G01*
X1435Y33536D01*
X1435Y33265D01*
X1164Y33265D01*
D02*
G37*
G36*
X2036Y32935D02*
G74*
D01*
G02X1765Y32664I436J165*
G01*
X1765Y32664D01*
X1765Y32935D01*
X2036Y32935D01*
D02*
G37*
G36*
X1435Y32664D02*
G74*
D01*
G02X1164Y32935I165J436*
G01*
X1164Y32935D01*
X1435Y32935D01*
X1435Y32664D01*
D02*
G37*
G36*
X1425Y33100D02*
G75*
D01*
G02X1425Y33100I175J0*
G01*
D02*
G37*
G36*
X7839Y32349D02*
G75*
D01*
G02X7839Y32851I-239J251*
G01*
X7839Y32851D01*
X7921Y32851D01*
X7938Y32868D01*
G75*
D01*
G02X7936Y32892I233J24*
G01*
X7936Y32892D01*
X7936Y33308D01*
G75*
D01*
G02X8171Y33543I235J0*
G01*
X8171Y33543D01*
X8279Y33543D01*
G74*
D01*
G02X8514Y33308I0J235*
G01*
X8514Y33308D01*
X8514Y32892D01*
G75*
D01*
G02X8473Y32760I-235J0*
G01*
G74*
D01*
G02X8402Y32622I248J40*
G01*
X8402Y32622D01*
X8203Y32423D01*
G74*
D01*
G02X8108Y32363I178J177*
G01*
G75*
D01*
G02X8025Y32349I-83J237*
G01*
X8025Y32349D01*
X7839Y32349D01*
D02*
G37*
G36*
X3721Y33477D02*
G74*
D01*
G02X3743Y33379I213J98*
G01*
X3743Y33379D01*
X3743Y33271D01*
G75*
D01*
G02X3721Y33173I-235J0*
G01*
X3721Y33173D01*
X3487Y33325D01*
X3721Y33477D01*
D02*
G37*
G36*
X3050Y33040D02*
X3050Y33040D01*
X3300Y33203D01*
X3550Y33040D01*
G74*
D01*
G02X3508Y33036I42J231*
G01*
X3508Y33036D01*
X3092Y33036D01*
G75*
D01*
G02X3050Y33040I0J235*
G01*
D02*
G37*
G36*
X2879Y33477D02*
X2879Y33477D01*
X3113Y33325D01*
X2879Y33173D01*
G75*
D01*
G02X2857Y33271I213J98*
G01*
X2857Y33271D01*
X2857Y33379D01*
G74*
D01*
G02X2879Y33477I235J0*
G01*
D02*
G37*
G36*
X5950Y30910D02*
X5950Y30910D01*
X5700Y30747D01*
X5450Y30910D01*
G75*
D01*
G02X5492Y30914I42J-231*
G01*
X5492Y30914D01*
X5908Y30914D01*
G74*
D01*
G02X5950Y30910I0J235*
G01*
D02*
G37*
G36*
X6121Y30473D02*
X6121Y30473D01*
X5887Y30625D01*
X6121Y30777D01*
G74*
D01*
G02X6143Y30679I213J98*
G01*
X6143Y30679D01*
X6143Y30571D01*
G75*
D01*
G02X6121Y30473I-235J0*
G01*
D02*
G37*
G36*
X5450Y30340D02*
X5450Y30340D01*
X5700Y30503D01*
X5950Y30340D01*
G74*
D01*
G02X5908Y30336I42J231*
G01*
X5908Y30336D01*
X5492Y30336D01*
G75*
D01*
G02X5450Y30340I0J235*
G01*
D02*
G37*
G36*
X5279Y30473D02*
G75*
D01*
G02X5257Y30571I213J98*
G01*
X5257Y30571D01*
X5257Y30679D01*
G74*
D01*
G02X5279Y30777I235J0*
G01*
X5279Y30777D01*
X5513Y30625D01*
X5279Y30473D01*
D02*
G37*
G36*
X5767Y37514D02*
X5767Y37514D01*
X5877Y37514D01*
X5877Y37290D01*
X5532Y37290D01*
G75*
D01*
G02X5767Y37514I235J-11*
G01*
D02*
G37*
%LPD*%
G36*
X3551Y34540D02*
G74*
D01*
G03X3635Y34574I43J231*
G01*
X3635Y34574D01*
X3825Y34574D01*
G74*
D01*
G03X4003Y34648I0J251*
G01*
X4003Y34648D01*
X4177Y34822D01*
G75*
D01*
G03X4251Y35000I-177J178*
G01*
X4251Y35000D01*
X4251Y35272D01*
G75*
D01*
G03X5001Y35044I449J128*
G01*
X5001Y35044D01*
X5422Y34622D01*
G74*
D01*
G03X5519Y34562I178J178*
G01*
G75*
D01*
G03X5600Y34549I81J238*
G01*
X5600Y34549D01*
X6600Y34549D01*
G75*
D01*
G03X6612Y34549I0J251*
G01*
G74*
D01*
G03X6778Y34623I12J251*
G01*
X6778Y34623D01*
X7127Y34972D01*
G74*
D01*
G03X7199Y35115I177J178*
G01*
X7199Y35115D01*
X7199Y34654D01*
X6996Y34451D01*
X5700Y34451D01*
G75*
D01*
G03X5522Y34378I0J-251*
G01*
X5522Y34378D01*
X4943Y33798D01*
G75*
D01*
G03X4251Y33528I-243J-398*
G01*
X4251Y33528D01*
X4251Y33800D01*
G74*
D01*
G03X4177Y33978I251J0*
G01*
X4177Y33978D01*
X3903Y34252D01*
G74*
D01*
G03X3725Y34326I178J177*
G01*
X3725Y34326D01*
X3635Y34326D01*
G74*
D01*
G03X3551Y34360I127J197*
G01*
X3551Y34360D01*
X3551Y34540D01*
D02*
G37*
%LPC*%
G36*
X4233Y34400D02*
G75*
D01*
G03X4233Y34400I467J0*
G01*
D02*
G37*
%LPD*%
G36*
X6209Y36086D02*
G74*
D01*
G03X6201Y36051I241J70*
G01*
X6201Y36051D01*
X6201Y36086D01*
X6209Y36086D01*
D02*
G37*
G54D11*
X6209Y36086D02*
G74*
D01*
G03X6201Y36051I241J70*
G01*
X6201Y36086D01*
X6209Y36086D01*
X9717Y35930D02*
X10183Y35930D01*
G74*
D01*
G02X10418Y35696I0J234*
G01*
X10418Y35471D01*
G75*
D01*
G02X10183Y35236I-235J0*
G01*
X9717Y35236D01*
G75*
D01*
G02X9534Y35324I0J235*
G01*
X9285Y35324D01*
G74*
D01*
G02X9158Y35286I127J197*
G01*
X9101Y35286D01*
X9101Y35114D01*
X9158Y35114D01*
G74*
D01*
G02X9393Y34879I0J235*
G01*
X9393Y34771D01*
G75*
D01*
G02X9158Y34536I-235J0*
G01*
X8742Y34536D01*
G75*
D01*
G02X8507Y34771I0J235*
G01*
X8507Y34879D01*
G74*
D01*
G02X8599Y35065I235J0*
G01*
X8599Y35335D01*
G75*
D01*
G02X8507Y35521I143J186*
G01*
X8507Y35629D01*
G75*
D01*
G02X8742Y35864I235J0*
G01*
X9158Y35864D01*
G74*
D01*
G02X9285Y35826I0J235*
G01*
X9522Y35826D01*
G75*
D01*
G02X9717Y35930I195J-130*
G01*
X9717Y34430D02*
X10183Y34430D01*
G74*
D01*
G02X10418Y34196I0J234*
G01*
X10418Y33971D01*
G75*
D01*
G02X10183Y33736I-235J0*
G01*
X9717Y33736D01*
G75*
D01*
G02X9534Y33824I0J235*
G01*
X9285Y33824D01*
G74*
D01*
G02X9158Y33786I127J197*
G01*
X8742Y33786D01*
G75*
D01*
G02X8582Y33849I0J235*
G01*
X8339Y33849D01*
G75*
D01*
G02X8339Y34351I-239J251*
G01*
X8666Y34351D01*
G75*
D01*
G02X8742Y34364I76J-222*
G01*
X9158Y34364D01*
G74*
D01*
G02X9285Y34326I0J235*
G01*
X9522Y34326D01*
G75*
D01*
G02X9717Y34430I195J-130*
G01*
X10087Y32543D02*
G75*
D01*
G02X10090Y32543I3J-252*
G01*
X11409Y32543D01*
G75*
D01*
G02X11407Y32571I233J28*
G01*
X11407Y32679D01*
G75*
D01*
G02X11642Y32914I235J0*
G01*
X12058Y32914D01*
G74*
D01*
G02X12293Y32679I0J235*
G01*
X12293Y32571D01*
G75*
D01*
G02X12072Y32337I-235J0*
G01*
X12072Y31628D01*
G74*
D01*
G02X12214Y31392I126J236*
G01*
X12214Y30908D01*
G75*
D01*
G02X11946Y30640I-268J0*
G01*
X11696Y30640D01*
G75*
D01*
G02X11428Y30908I0J268*
G01*
X11428Y31392D01*
G74*
D01*
G02X11570Y31628I268J0*
G01*
X11570Y32040D01*
X10194Y32040D01*
X10050Y31896D01*
X10050Y31671D01*
G75*
D01*
G02X10050Y30929I-252J-371*
G01*
X10050Y30900D01*
G75*
D01*
G02X9976Y30722I-252J0*
G01*
X9701Y30448D01*
G74*
D01*
G02X9523Y30374I178J177*
G01*
X8116Y30374D01*
G74*
D01*
G02X7933Y30286I183J147*
G01*
X7467Y30286D01*
G75*
D01*
G02X7284Y30374I0J235*
G01*
X7035Y30374D01*
G74*
D01*
G02X6908Y30336I127J197*
G01*
X6492Y30336D01*
G75*
D01*
G02X6257Y30571I0J235*
G01*
X6257Y30679D01*
G75*
D01*
G02X6492Y30914I235J0*
G01*
X6908Y30914D01*
G74*
D01*
G02X7035Y30876I0J235*
G01*
X7272Y30876D01*
G75*
D01*
G02X7467Y30980I195J-130*
G01*
X7933Y30980D01*
G74*
D01*
G02X8128Y30876I0J234*
G01*
X8751Y30876D01*
G75*
D01*
G02X8746Y31722I146J424*
G01*
X8746Y32736D01*
G75*
D01*
G02X8686Y32892I175J156*
G01*
X8686Y33308D01*
G75*
D01*
G02X8921Y33543I235J0*
G01*
X9029Y33543D01*
G74*
D01*
G02X9264Y33308I0J235*
G01*
X9264Y32892D01*
G75*
D01*
G02X9248Y32808I-235J0*
G01*
X9248Y31578D01*
G75*
D01*
G02X9042Y30876I-351J-278*
G01*
X9419Y30876D01*
X9505Y30962D01*
G75*
D01*
G02X9547Y31671I293J338*
G01*
X9547Y31999D01*
G75*
D01*
G02X9621Y32178I251J1*
G01*
X9912Y32469D01*
G74*
D01*
G02X10087Y32543I178J178*
G01*
X14040Y37000D02*
G75*
D01*
G02X14040Y37000I760J0*
G01*
X14040Y31200D02*
G75*
D01*
G02X14040Y31200I760J0*
G01*
X13151Y32340D02*
X13151Y31616D01*
G74*
D01*
G02X13272Y31392I147J224*
G01*
X13272Y30908D01*
G75*
D01*
G02X13004Y30640I-268J0*
G01*
X12754Y30640D01*
G75*
D01*
G02X12486Y30908I0J268*
G01*
X12486Y31392D01*
G74*
D01*
G02X12649Y31638I268J0*
G01*
X12649Y32340D01*
G75*
D01*
G02X12457Y32571I43J231*
G01*
X12457Y32679D01*
G75*
D01*
G02X12692Y32914I235J0*
G01*
X13108Y32914D01*
G74*
D01*
G02X13343Y32679I0J235*
G01*
X13343Y32571D01*
G75*
D01*
G02X13151Y32340I-235J0*
G01*
X10490Y31300D02*
G75*
D01*
G02X10490Y31300I210J0*
G01*
X11109Y31484D02*
G75*
D01*
G02X11109Y31116I-409J-184*
G01*
X10925Y31300D01*
X11109Y31484D01*
X10884Y30891D02*
G75*
D01*
G02X10516Y30891I-184J409*
G01*
X10700Y31075D01*
X10884Y30891D01*
X10291Y31484D02*
X10475Y31300D01*
X10291Y31116D01*
G75*
D01*
G02X10291Y31484I409J184*
G01*
X10516Y31709D02*
G75*
D01*
G02X10884Y31709I184J-409*
G01*
X10700Y31525D01*
X10516Y31709D01*
X14531Y34349D02*
X14229Y34349D01*
X13341Y33460D01*
G74*
D01*
G02X13343Y33429I233J31*
G01*
X13343Y33321D01*
G75*
D01*
G02X13108Y33086I-235J0*
G01*
X12692Y33086D01*
G75*
D01*
G02X12565Y33124I0J235*
G01*
X12185Y33124D01*
G74*
D01*
G02X12058Y33086I127J197*
G01*
X11642Y33086D01*
G75*
D01*
G02X11515Y33124I0J235*
G01*
X11234Y33124D01*
G75*
D01*
G02X11138Y33143I0J251*
G01*
G74*
D01*
G02X11056Y33197I96J232*
G01*
X10774Y33479D01*
X10743Y33479D01*
G75*
D01*
G02X10552Y33669I0J190*
G01*
X10552Y33748D01*
G75*
D01*
G02X10743Y33938I191J0*
G01*
X10798Y33938D01*
G75*
D01*
G02X11002Y33938I102J-229*
G01*
X11057Y33938D01*
G74*
D01*
G02X11248Y33748I0J190*
G01*
X11248Y33716D01*
X11338Y33626D01*
X11515Y33626D01*
G75*
D01*
G02X11642Y33664I127J-197*
G01*
X11649Y33664D01*
X11649Y34276D01*
X11575Y34276D01*
G75*
D01*
G02X11424Y34427I0J151*
G01*
X11424Y35687D01*
G75*
D01*
G02X11575Y35837I151J0*
G01*
X12225Y35837D01*
G74*
D01*
G02X12376Y35687I0J150*
G01*
X12376Y34427D01*
G75*
D01*
G02X12225Y34276I-151J0*
G01*
X12151Y34276D01*
X12151Y33644D01*
G74*
D01*
G02X12185Y33626I93J215*
G01*
X12565Y33626D01*
G75*
D01*
G02X12692Y33664I127J-197*
G01*
X12833Y33664D01*
X13947Y34778D01*
G74*
D01*
G02X14043Y34837I178J178*
G01*
G75*
D01*
G02X14125Y34851I82J-237*
G01*
X14531Y34851D01*
G75*
D01*
G02X14846Y35052I315J-147*
G01*
X15054Y35052D01*
G74*
D01*
G02X15402Y34704I0J348*
G01*
X15402Y34496D01*
G75*
D01*
G02X15054Y34148I-348J0*
G01*
X14846Y34148D01*
G75*
D01*
G02X14531Y34349I0J348*
G01*
X11518Y36374D02*
G75*
D01*
G02X11424Y36513I57J139*
G01*
X11424Y37773D01*
G75*
D01*
G02X11575Y37924I151J0*
G01*
X12225Y37924D01*
G74*
D01*
G02X12376Y37773I0J151*
G01*
X12376Y36513D01*
G75*
D01*
G02X12225Y36363I-151J0*
G01*
X12148Y36363D01*
G74*
D01*
G02X12077Y36222I248J37*
G01*
X11778Y35923D01*
G74*
D01*
G02X11600Y35849I178J177*
G01*
X11339Y35849D01*
G75*
D01*
G02X11339Y36351I-239J251*
G01*
X11496Y36351D01*
X11518Y36374D01*
X14483Y33600D02*
G75*
D01*
G02X14483Y33600I467J0*
G01*
X10183Y34470D02*
X10073Y34470D01*
X10073Y34694D01*
X10418Y34694D01*
G74*
D01*
G02X10183Y34470I235J10*
G01*
X10418Y34940D02*
X10073Y34940D01*
X10073Y35164D01*
X10183Y35164D01*
G74*
D01*
G02X10418Y34940I0J235*
G01*
X10183Y35970D02*
X10073Y35970D01*
X10073Y36194D01*
X10418Y36194D01*
G74*
D01*
G02X10183Y35970I235J10*
G01*
X10418Y36440D02*
X10073Y36440D01*
X10073Y36664D01*
X10183Y36664D01*
G74*
D01*
G02X10418Y36440I0J235*
G01*
X6468Y37290D02*
X6123Y37290D01*
X6123Y37514D01*
X6233Y37514D01*
G74*
D01*
G02X6468Y37290I0J235*
G01*
X9717Y36664D02*
X9827Y36664D01*
X9827Y36440D01*
X9482Y36440D01*
G75*
D01*
G02X9717Y36664I235J-11*
G01*
X6233Y36820D02*
X6123Y36820D01*
X6123Y37044D01*
X6468Y37044D01*
G74*
D01*
G02X6233Y36820I235J10*
G01*
X3049Y34540D02*
G75*
D01*
G02X2857Y34771I43J231*
G01*
X2857Y34879D01*
G75*
D01*
G02X3092Y35114I235J0*
G01*
X3508Y35114D01*
G74*
D01*
G02X3635Y35076I0J235*
G01*
X3721Y35076D01*
X3749Y35104D01*
X3749Y36100D01*
G75*
D01*
G02X3822Y36278I251J0*
G01*
X4122Y36578D01*
G74*
D01*
G02X4281Y36650I178J178*
G01*
G75*
D01*
G02X4596Y36852I315J-146*
G01*
X4804Y36852D01*
G74*
D01*
G02X5152Y36504I0J348*
G01*
X5152Y36296D01*
G75*
D01*
G02X4804Y35948I-348J0*
G01*
X4596Y35948D01*
G75*
D01*
G02X4329Y36074I0J348*
G01*
X4251Y35996D01*
X4251Y35528D01*
G75*
D01*
G02X5108Y35627I449J-128*
G01*
G74*
D01*
G02X5178Y35577I108J227*
G01*
X5704Y35051D01*
X6496Y35051D01*
X6552Y35107D01*
X6332Y35107D01*
G75*
D01*
G02X6200Y35185I0J151*
G01*
G74*
D01*
G02X6068Y35107I132J73*
G01*
X5832Y35107D01*
G75*
D01*
G02X5681Y35258I0J151*
G01*
X5681Y35868D01*
G74*
D01*
G02X5699Y35939I151J0*
G01*
X5699Y36096D01*
G75*
D01*
G02X5532Y36321I68J225*
G01*
X5532Y36346D01*
X4929Y36949D01*
X4104Y36949D01*
X3551Y36396D01*
X3551Y35860D01*
G74*
D01*
G02X3743Y35629I43J231*
G01*
X3743Y35521D01*
G75*
D01*
G02X3508Y35286I-235J0*
G01*
X3092Y35286D01*
G75*
D01*
G02X2965Y35324I0J235*
G01*
X2280Y35324D01*
X2052Y35096D01*
X2052Y34996D01*
G75*
D01*
G02X1704Y34648I-348J0*
G01*
X1496Y34648D01*
G75*
D01*
G02X1148Y34996I0J348*
G01*
X1148Y35204D01*
G75*
D01*
G02X1496Y35552I348J0*
G01*
X1704Y35552D01*
G74*
D01*
G02X1787Y35542I0J348*
G01*
X1998Y35753D01*
G74*
D01*
G02X2116Y35819I178J178*
G01*
G75*
D01*
G02X2176Y35826I60J-244*
G01*
X2965Y35826D01*
G74*
D01*
G02X3049Y35860I127J197*
G01*
X3049Y36500D01*
G75*
D01*
G02X3122Y36678I251J0*
G01*
X3822Y37378D01*
G74*
D01*
G02X3911Y37435I178J178*
G01*
G75*
D01*
G02X4000Y37451I89J-235*
G01*
X5033Y37451D01*
G75*
D01*
G02X5116Y37437I0J-251*
G01*
G74*
D01*
G02X5211Y37377I83J237*
G01*
X5545Y37044D01*
X5877Y37044D01*
X5877Y36820D01*
X5769Y36820D01*
X5808Y36780D01*
X6233Y36780D01*
G74*
D01*
G02X6468Y36546I0J234*
G01*
X6468Y36390D01*
X6557Y36479D01*
X6557Y36479D01*
G75*
D01*
G02X6792Y36714I235J0*
G01*
X7208Y36714D01*
G74*
D01*
G02X7443Y36479I0J235*
G01*
X7443Y36371D01*
G75*
D01*
G02X7208Y36136I-235J0*
G01*
X6925Y36136D01*
X6805Y36016D01*
G75*
D01*
G02X6832Y36019I27J-148*
G01*
X7068Y36019D01*
G74*
D01*
G02X7200Y35941I0J151*
G01*
G75*
D01*
G02X7332Y36019I132J-73*
G01*
X7568Y36019D01*
G74*
D01*
G02X7719Y35868I0J151*
G01*
X7719Y35258D01*
G75*
D01*
G02X7701Y35187I-151J0*
G01*
X7701Y34550D01*
G75*
D01*
G02X7627Y34372I-251J0*
G01*
X7278Y34023D01*
G74*
D01*
G02X7100Y33949I178J177*
G01*
X5804Y33949D01*
X5156Y33301D01*
G75*
D01*
G02X4251Y33272I-456J99*
G01*
X4251Y32704D01*
X4304Y32651D01*
X4307Y32651D01*
G75*
D01*
G02X4307Y32149I393J-251*
G01*
X4200Y32149D01*
G75*
D01*
G02X4022Y32222I0J251*
G01*
X3822Y32422D01*
G75*
D01*
G02X3749Y32600I178J178*
G01*
X3749Y33696D01*
X3626Y33818D01*
G74*
D01*
G02X3508Y33786I118J203*
G01*
X3092Y33786D01*
G75*
D01*
G02X2857Y34021I0J235*
G01*
X2857Y34129D01*
G74*
D01*
G02X3049Y34360I235J0*
G01*
X3049Y34540D01*
X1040Y31200D02*
G75*
D01*
G02X1040Y31200I760J0*
G01*
X1040Y37000D02*
G75*
D01*
G02X1040Y37000I760J0*
G01*
X3550Y33610D02*
X3300Y33447D01*
X3050Y33610D01*
G75*
D01*
G02X3092Y33614I42J-231*
G01*
X3508Y33614D01*
G74*
D01*
G02X3550Y33610I0J235*
G01*
X7272Y31124D02*
X7035Y31124D01*
G74*
D01*
G02X6908Y31086I127J197*
G01*
X6492Y31086D01*
G75*
D01*
G02X6365Y31124I0J235*
G01*
X6035Y31124D01*
G74*
D01*
G02X5908Y31086I127J197*
G01*
X5492Y31086D01*
G75*
D01*
G02X5257Y31321I0J235*
G01*
X5257Y31429D01*
G75*
D01*
G02X5492Y31664I235J0*
G01*
X5908Y31664D01*
G74*
D01*
G02X6035Y31626I0J235*
G01*
X6365Y31626D01*
G75*
D01*
G02X6492Y31664I127J-197*
G01*
X6533Y31664D01*
X6699Y31829D01*
X6699Y32516D01*
G75*
D01*
G02X6201Y32624I-199J284*
G01*
X6201Y32583D01*
G75*
D01*
G02X5699Y32472I-201J-283*
G01*
X5699Y33061D01*
G75*
D01*
G02X5681Y33132I133J71*
G01*
X5681Y33742D01*
G75*
D01*
G02X5832Y33893I151J0*
G01*
X6068Y33893D01*
G74*
D01*
G02X6200Y33815I0J151*
G01*
G75*
D01*
G02X6332Y33893I132J-73*
G01*
X6568Y33893D01*
G74*
D01*
G02X6700Y33815I0J151*
G01*
G75*
D01*
G02X6832Y33893I132J-73*
G01*
X7068Y33893D01*
G74*
D01*
G02X7200Y33815I0J151*
G01*
G75*
D01*
G02X7332Y33893I132J-73*
G01*
X7355Y33893D01*
X7355Y33532D01*
X7219Y33532D01*
X7219Y33342D01*
X7355Y33342D01*
X7355Y32981D01*
X7332Y32981D01*
G75*
D01*
G02X7201Y33057I0J151*
G01*
X7201Y31725D01*
G75*
D01*
G02X7181Y31626I-251J0*
G01*
X7284Y31626D01*
G75*
D01*
G02X7467Y31714I183J-147*
G01*
X7933Y31714D01*
G74*
D01*
G02X8168Y31479I0J235*
G01*
X8168Y31254D01*
G75*
D01*
G02X7933Y31020I-235J0*
G01*
X7467Y31020D01*
G75*
D01*
G02X7272Y31124I0J234*
G01*
X9482Y36194D02*
X9827Y36194D01*
X9827Y35970D01*
X9717Y35970D01*
G75*
D01*
G02X9482Y36194I0J234*
G01*
X8599Y36565D02*
X8599Y36746D01*
X8421Y36924D01*
X8335Y36924D01*
G74*
D01*
G02X8208Y36886I127J197*
G01*
X7792Y36886D01*
G75*
D01*
G02X7665Y36924I0J235*
G01*
X7335Y36924D01*
G74*
D01*
G02X7208Y36886I127J197*
G01*
X6792Y36886D01*
G75*
D01*
G02X6557Y37121I0J235*
G01*
X6557Y37229D01*
G75*
D01*
G02X6792Y37464I235J0*
G01*
X7208Y37464D01*
G74*
D01*
G02X7335Y37426I0J235*
G01*
X7665Y37426D01*
G75*
D01*
G02X7792Y37464I127J-197*
G01*
X8208Y37464D01*
G74*
D01*
G02X8335Y37426I0J235*
G01*
X8525Y37426D01*
G74*
D01*
G02X8703Y37352I0J251*
G01*
X9027Y37028D01*
G74*
D01*
G02X9101Y36850I177J178*
G01*
X9101Y36614D01*
X9158Y36614D01*
G74*
D01*
G02X9393Y36379I0J235*
G01*
X9393Y36271D01*
G75*
D01*
G02X9158Y36036I-235J0*
G01*
X8742Y36036D01*
G75*
D01*
G02X8507Y36271I0J235*
G01*
X8507Y36379D01*
G74*
D01*
G02X8599Y36565I235J0*
G01*
X8421Y36577D02*
G74*
D01*
G02X8443Y36479I213J98*
G01*
X8443Y36371D01*
G75*
D01*
G02X8421Y36273I-235J0*
G01*
X8187Y36425D01*
X8421Y36577D01*
X8250Y36710D02*
X8000Y36547D01*
X7750Y36710D01*
G75*
D01*
G02X7792Y36714I42J-231*
G01*
X8208Y36714D01*
G74*
D01*
G02X8250Y36710I0J235*
G01*
X7579Y36577D02*
X7813Y36425D01*
X7579Y36273D01*
G75*
D01*
G02X7557Y36371I213J98*
G01*
X7557Y36479D01*
G74*
D01*
G02X7579Y36577I235J0*
G01*
X7750Y36140D02*
X8000Y36303D01*
X8250Y36140D01*
G74*
D01*
G02X8208Y36136I42J231*
G01*
X7792Y36136D01*
G75*
D01*
G02X7750Y36140I0J235*
G01*
X9717Y35164D02*
X9827Y35164D01*
X9827Y34940D01*
X9482Y34940D01*
G75*
D01*
G02X9717Y35164I235J-11*
G01*
X9482Y34694D02*
X9827Y34694D01*
X9827Y34470D01*
X9717Y34470D01*
G75*
D01*
G02X9482Y34694I0J234*
G01*
X7719Y33742D02*
X7719Y33532D01*
X7545Y33532D01*
X7545Y33893D01*
X7568Y33893D01*
G74*
D01*
G02X7719Y33742I0J151*
G01*
X1133Y34100D02*
G75*
D01*
G02X1133Y34100I467J0*
G01*
X7568Y32981D02*
X7545Y32981D01*
X7545Y33342D01*
X7719Y33342D01*
X7719Y33132D01*
G75*
D01*
G02X7568Y32981I-151J0*
G01*
X1765Y33536D02*
G74*
D01*
G02X2036Y33265I165J436*
G01*
X1765Y33265D01*
X1765Y33536D01*
X1164Y33265D02*
G74*
D01*
G02X1435Y33536I436J165*
G01*
X1435Y33265D01*
X1164Y33265D01*
X2036Y32935D02*
G74*
D01*
G02X1765Y32664I436J165*
G01*
X1765Y32935D01*
X2036Y32935D01*
X1435Y32664D02*
G74*
D01*
G02X1164Y32935I165J436*
G01*
X1435Y32935D01*
X1435Y32664D01*
X1425Y33100D02*
G75*
D01*
G02X1425Y33100I175J0*
G01*
X7839Y32349D02*
G75*
D01*
G02X7839Y32851I-239J251*
G01*
X7921Y32851D01*
X7938Y32868D01*
G75*
D01*
G02X7936Y32892I233J24*
G01*
X7936Y33308D01*
G75*
D01*
G02X8171Y33543I235J0*
G01*
X8279Y33543D01*
G74*
D01*
G02X8514Y33308I0J235*
G01*
X8514Y32892D01*
G75*
D01*
G02X8473Y32760I-235J0*
G01*
G74*
D01*
G02X8402Y32622I248J40*
G01*
X8203Y32423D01*
G74*
D01*
G02X8108Y32363I178J177*
G01*
G75*
D01*
G02X8025Y32349I-83J237*
G01*
X7839Y32349D01*
X3721Y33477D02*
G74*
D01*
G02X3743Y33379I213J98*
G01*
X3743Y33271D01*
G75*
D01*
G02X3721Y33173I-235J0*
G01*
X3487Y33325D01*
X3721Y33477D01*
X3050Y33040D02*
X3300Y33203D01*
X3550Y33040D01*
G74*
D01*
G02X3508Y33036I42J231*
G01*
X3092Y33036D01*
G75*
D01*
G02X3050Y33040I0J235*
G01*
X2879Y33477D02*
X3113Y33325D01*
X2879Y33173D01*
G75*
D01*
G02X2857Y33271I213J98*
G01*
X2857Y33379D01*
G74*
D01*
G02X2879Y33477I235J0*
G01*
X5950Y30910D02*
X5700Y30747D01*
X5450Y30910D01*
G75*
D01*
G02X5492Y30914I42J-231*
G01*
X5908Y30914D01*
G74*
D01*
G02X5950Y30910I0J235*
G01*
X6121Y30473D02*
X5887Y30625D01*
X6121Y30777D01*
G74*
D01*
G02X6143Y30679I213J98*
G01*
X6143Y30571D01*
G75*
D01*
G02X6121Y30473I-235J0*
G01*
X5450Y30340D02*
X5700Y30503D01*
X5950Y30340D01*
G74*
D01*
G02X5908Y30336I42J231*
G01*
X5492Y30336D01*
G75*
D01*
G02X5450Y30340I0J235*
G01*
X5279Y30473D02*
G75*
D01*
G02X5257Y30571I213J98*
G01*
X5257Y30679D01*
G74*
D01*
G02X5279Y30777I235J0*
G01*
X5513Y30625D01*
X5279Y30473D01*
X5767Y37514D02*
X5877Y37514D01*
X5877Y37290D01*
X5532Y37290D01*
G75*
D01*
G02X5767Y37514I235J-11*
G01*
X1708Y30251D02*
X14892Y30251D01*
G75*
D01*
G02X14900Y30251I8J-151*
G01*
G75*
D01*
G03X15749Y31100I0J849*
G01*
G74*
D01*
G02X15750Y31108I151J0*
G01*
X15750Y37092D01*
G75*
D01*
G02X15749Y37100I150J8*
G01*
G74*
D01*
G03X14900Y37949I849J0*
G01*
G75*
D01*
G02X14892Y37949I0J151*
G01*
X1708Y37949D01*
X1700Y37949D01*
G75*
D01*
G03X851Y37100I0J-849*
G01*
G75*
D01*
G02X851Y37092I-151J0*
G01*
X851Y31108D01*
X851Y31100D01*
G75*
D01*
G03X1700Y30251I849J0*
G01*
X1708Y30251D01*
X4233Y34400D02*
G75*
D01*
G03X4233Y34400I467J0*
G01*
X3551Y34540D02*
G74*
D01*
G03X3635Y34574I43J231*
G01*
X3825Y34574D01*
G74*
D01*
G03X4003Y34648I0J251*
G01*
X4177Y34822D01*
G75*
D01*
G03X4251Y35000I-177J178*
G01*
X4251Y35272D01*
G75*
D01*
G03X5001Y35044I449J128*
G01*
X5422Y34622D01*
G74*
D01*
G03X5519Y34562I178J178*
G01*
G75*
D01*
G03X5600Y34549I81J238*
G01*
X6600Y34549D01*
G75*
D01*
G03X6612Y34549I0J251*
G01*
G74*
D01*
G03X6778Y34623I12J251*
G01*
X7127Y34972D01*
G74*
D01*
G03X7199Y35115I177J178*
G01*
X7199Y34654D01*
X6996Y34451D01*
X5700Y34451D01*
G75*
D01*
G03X5522Y34378I0J-251*
G01*
X4943Y33798D01*
G75*
D01*
G03X4251Y33528I-243J-398*
G01*
X4251Y33800D01*
G74*
D01*
G03X4177Y33978I251J0*
G01*
X3903Y34252D01*
G74*
D01*
G03X3725Y34326I178J177*
G01*
X3635Y34326D01*
G74*
D01*
G03X3551Y34360I127J197*
G01*
X3551Y34540D01*
G54D12*
X8850Y34075D02*
X9842Y34075D01*
X8850Y34825D02*
X8850Y35575D01*
X9842Y35575D01*
X8850Y36325D02*
X8850Y36850D01*
X6450Y33437D02*
X6450Y32850D01*
X8225Y32800D02*
X8025Y32600D01*
X7725Y32600D01*
X8225Y32800D02*
X8225Y33100D01*
X8100Y34100D02*
X8800Y34100D01*
X6600Y30625D02*
X7600Y30625D01*
X9523Y30625D01*
X9798Y30900D01*
X6950Y31725D02*
X6950Y33437D01*
X6950Y31725D02*
X6600Y31375D01*
X6788Y36354D02*
X6450Y36016D01*
X6450Y35563D02*
X6450Y36016D01*
X5950Y35563D02*
X5950Y36383D01*
X8850Y36850D02*
X8525Y37175D01*
X6900Y37175D02*
X8525Y37175D01*
X6000Y33387D02*
X5950Y33437D01*
X5950Y32350D01*
X6000Y32300D01*
X7100Y34200D02*
X7450Y34550D01*
X7450Y35563D01*
X6950Y35563D02*
X6950Y35150D01*
X6600Y34800D01*
X5600Y34800D02*
X5000Y35400D01*
X6600Y34800D02*
X5600Y34800D01*
X5000Y35400D02*
X4700Y35400D01*
X4900Y33400D02*
X5700Y34200D01*
X4900Y33400D02*
X4700Y33400D01*
X5700Y34200D02*
X7100Y34200D01*
X3300Y34075D02*
X3300Y34825D01*
X2176Y35575D02*
X1700Y35099D01*
X3300Y35575D02*
X2176Y35575D01*
X4000Y36100D02*
X4300Y36400D01*
X4800Y36400D01*
X3825Y34825D02*
X4000Y35000D01*
X4000Y36100D01*
X3300Y34825D02*
X3825Y34825D01*
X3300Y34075D02*
X3725Y34075D01*
X4000Y33800D01*
X4000Y32600D02*
X4200Y32400D01*
X4800Y32400D01*
X4000Y33800D02*
X4000Y32600D01*
X5950Y36383D02*
X5900Y36433D01*
X5800Y36433D02*
X5033Y37200D01*
X5800Y36433D02*
X5900Y36433D01*
X4000Y37200D02*
X3300Y36500D01*
X5033Y37200D02*
X4000Y37200D01*
X3300Y36500D02*
X3300Y35575D01*
X6600Y31375D02*
X7592Y31375D01*
X5600Y31375D02*
X6600Y31375D01*
X8997Y31300D02*
X8997Y33022D01*
X10090Y32291D02*
X9798Y32000D01*
X9798Y30900D02*
X9798Y32000D01*
X11821Y32233D02*
X11762Y32291D01*
X11821Y31150D02*
X11821Y32596D01*
X10090Y32291D02*
X11762Y32291D01*
X12900Y32625D02*
X12900Y31171D01*
X14660Y34600D02*
X14125Y34600D01*
X11234Y33375D02*
X12900Y33375D01*
X11234Y33375D02*
X10900Y33709D01*
X11900Y35057D02*
X11900Y33425D01*
X11850Y33375D01*
X11600Y36100D02*
X11900Y36400D01*
X11900Y36900D01*
X11600Y36100D02*
X11100Y36100D01*
X14125Y34600D02*
X12900Y33375D01*
G54D13*
X600Y30000D02*
X600Y30820D01*
X600Y30000D02*
X2140Y30000D01*
X16000Y30000D02*
X14460Y30000D01*
X16000Y30000D02*
X16000Y30820D01*
X16000Y38200D02*
X16000Y37380D01*
X16000Y38200D02*
X14460Y38200D01*
X600Y38200D02*
X2140Y38200D01*
X600Y38200D02*
X600Y37380D01*
X-1369Y30000D02*
X-5306Y30000D01*
X-3337Y28031D02*
X-3337Y31969D01*
X-4813Y30000D02*
G75*
D01*
G02X-4813Y30000I1476J0*
G01*
X17969Y30000D02*
X21906Y30000D01*
X19937Y28031D02*
X19937Y31969D01*
X18461Y30000D02*
G75*
D01*
G02X18461Y30000I1476J0*
G01*
X19445Y30000D02*
G75*
D01*
G02X19445Y30000I492J0*
G01*
X-1369Y38200D02*
X-5306Y38200D01*
X-3337Y36231D02*
X-3337Y40169D01*
X-4813Y38200D02*
G75*
D01*
G02X-4813Y38200I1476J0*
G01*
X-4321Y38200D02*
G75*
D01*
G02X-4321Y38200I984J0*
G01*
X-3829Y38200D02*
G75*
D01*
G02X-3829Y38200I492J0*
G01*
G54D14*
X8100Y34100D03*
X6500Y32800D03*
X6000Y32300D03*
X7600Y32600D03*
X11100Y36100D03*
G54D15*
X3300Y34825D03*
X3300Y35575D03*
X3300Y33325D03*
X3300Y34075D03*
X8950Y34075D03*
X8950Y34825D03*
X8950Y35575D03*
X8950Y36325D03*
X7000Y36425D03*
X7000Y37175D03*
X8000Y36425D03*
X8000Y37175D03*
X6700Y30625D03*
X6700Y31375D03*
X5700Y30625D03*
X5700Y31375D03*
X11850Y32625D03*
X11850Y33375D03*
X12900Y32625D03*
X12900Y33375D03*
G54D16*
X3092Y34771D02*
X3508Y34771D01*
X3508Y34879D01*
X3092Y34879D01*
X3092Y34771D01*D02*
X3092Y35521D02*
X3508Y35521D01*
X3508Y35629D01*
X3092Y35629D01*
X3092Y35521D01*D02*
X3092Y33271D02*
X3508Y33271D01*
X3508Y33379D01*
X3092Y33379D01*
X3092Y33271D01*D02*
X3092Y34021D02*
X3508Y34021D01*
X3508Y34129D01*
X3092Y34129D01*
X3092Y34021D01*D02*
X8171Y32892D02*
X8279Y32892D01*
X8279Y33308D01*
X8171Y33308D01*
X8171Y32892D01*D02*
X8921Y32892D02*
X9029Y32892D01*
X9029Y33308D01*
X8921Y33308D01*
X8921Y32892D01*D02*
X8742Y34021D02*
X9158Y34021D01*
X9158Y34129D01*
X8742Y34129D01*
X8742Y34021D01*D02*
X8742Y34771D02*
X9158Y34771D01*
X9158Y34879D01*
X8742Y34879D01*
X8742Y34771D01*D02*
X9717Y35471D02*
X10183Y35471D01*
X10183Y35695D01*
X9717Y35695D01*
X9717Y35471D01*D02*
X9717Y36205D02*
X10183Y36205D01*
X10183Y36429D01*
X9717Y36429D01*
X9717Y36205D01*D02*
X8742Y35521D02*
X9158Y35521D01*
X9158Y35629D01*
X8742Y35629D01*
X8742Y35521D01*D02*
X8742Y36271D02*
X9158Y36271D01*
X9158Y36379D01*
X8742Y36379D01*
X8742Y36271D01*D02*
X6792Y36371D02*
X7208Y36371D01*
X7208Y36479D01*
X6792Y36479D01*
X6792Y36371D01*D02*
X6792Y37121D02*
X7208Y37121D01*
X7208Y37229D01*
X6792Y37229D01*
X6792Y37121D01*D02*
X7792Y36371D02*
X8208Y36371D01*
X8208Y36479D01*
X7792Y36479D01*
X7792Y36371D01*D02*
X7792Y37121D02*
X8208Y37121D01*
X8208Y37229D01*
X7792Y37229D01*
X7792Y37121D01*D02*
X7467Y30521D02*
X7933Y30521D01*
X7933Y30745D01*
X7467Y30745D01*
X7467Y30521D01*D02*
X7467Y31255D02*
X7933Y31255D01*
X7933Y31479D01*
X7467Y31479D01*
X7467Y31255D01*D02*
X6492Y30571D02*
X6908Y30571D01*
X6908Y30679D01*
X6492Y30679D01*
X6492Y30571D01*D02*
X6492Y31321D02*
X6908Y31321D01*
X6908Y31429D01*
X6492Y31429D01*
X6492Y31321D01*D02*
X5767Y36321D02*
X6233Y36321D01*
X6233Y36545D01*
X5767Y36545D01*
X5767Y36321D01*D02*
X5767Y37055D02*
X6233Y37055D01*
X6233Y37279D01*
X5767Y37279D01*
X5767Y37055D01*D02*
X5492Y30571D02*
X5908Y30571D01*
X5908Y30679D01*
X5492Y30679D01*
X5492Y30571D01*D02*
X5492Y31321D02*
X5908Y31321D01*
X5908Y31429D01*
X5492Y31429D01*
X5492Y31321D01*D02*
X11642Y32571D02*
X12058Y32571D01*
X12058Y32679D01*
X11642Y32679D01*
X11642Y32571D01*D02*
X11642Y33321D02*
X12058Y33321D01*
X12058Y33429D01*
X11642Y33429D01*
X11642Y33321D01*D02*
X9717Y33971D02*
X10183Y33971D01*
X10183Y34195D01*
X9717Y34195D01*
X9717Y33971D01*D02*
X9717Y34705D02*
X10183Y34705D01*
X10183Y34929D01*
X9717Y34929D01*
X9717Y34705D01*D02*
X12692Y32571D02*
X13108Y32571D01*
X13108Y32679D01*
X12692Y32679D01*
X12692Y32571D01*D02*
X12692Y33321D02*
X13108Y33321D01*
X13108Y33429D01*
X12692Y33429D01*
X12692Y33321D01*D02*
G54D17*
X8225Y33100D03*
X8975Y33100D03*
G54D18*
X9950Y35583D03*
X9950Y36317D03*
X7700Y30633D03*
X7700Y31367D03*
X6000Y36433D03*
X6000Y37167D03*
X9950Y34083D03*
X9950Y34817D03*
G54D19*
X4700Y33400D03*
X4700Y35400D03*
X4700Y34400D03*
X4700Y32400D03*
X1600Y34100D03*
X1600Y33100D03*
X14950Y33600D03*
G54D20*
X4700Y36400D03*
X1600Y35100D03*
X14950Y34600D03*
G54D21*
X4596Y36296D02*
X4804Y36296D01*
X4804Y36504D01*
X4596Y36504D01*
X4596Y36296D01*D02*
X1496Y34996D02*
X1704Y34996D01*
X1704Y35204D01*
X1496Y35204D01*
X1496Y34996D01*D02*
X14846Y34496D02*
X15054Y34496D01*
X15054Y34704D01*
X14846Y34704D01*
X14846Y34496D01*D02*
G54D22*
X6450Y33437D03*
X5950Y33437D03*
X6950Y33437D03*
X7450Y33437D03*
X5950Y35563D03*
X6450Y35563D03*
X6950Y35563D03*
X7450Y35563D03*
G54D23*
X10700Y31300D03*
X9798Y31300D03*
X8897Y31300D03*
G54D24*
X11900Y35057D03*
X11900Y37143D03*
G54D25*
X11821Y31150D03*
X12879Y31150D03*
G54D26*
X11696Y30909D02*
X11946Y30909D01*
X11946Y31391D01*
X11696Y31391D01*
X11696Y30909D01*D02*
X12754Y30909D02*
X13004Y30909D01*
X13004Y31391D01*
X12754Y31391D01*
X12754Y30909D01*D02*
G54D27*
X10900Y32291D03*
X10900Y33709D03*
G54D28*
X10743Y32252D02*
X11057Y32252D01*
X11057Y32330D01*
X10743Y32330D01*
X10743Y32252D01*D02*
X10743Y33670D02*
X11057Y33670D01*
X11057Y33748D01*
X10743Y33748D01*
X10743Y33670D01*D02*

M02*
