G04 Generated by Ultiboard 14.2 *
%FSLAX24Y24*%
%MOIN*%

%ADD10C,0.0001*%
%ADD11C,0.0050*%
%ADD12C,0.0394*%
%ADD13C,0.1220*%
%ADD14C,0.0633*%
%ADD15R,0.0208X0.0208*%
%ADD16C,0.0392*%
%ADD17R,0.0417X0.0108*%
%ADD18C,0.0167*%
%ADD19C,0.0560*%


G04 ColorRGB 9900CC for the following layer *
%LNSolder Mask Bottom*%
%LPD*%
G54D10*
G54D11*
X600Y30000D02*
X600Y30820D01*
X600Y30000D02*
X2140Y30000D01*
X16000Y30000D02*
X14460Y30000D01*
X16000Y30000D02*
X16000Y30820D01*
X16000Y38200D02*
X16000Y37380D01*
X16000Y38200D02*
X14460Y38200D01*
X600Y38200D02*
X2140Y38200D01*
X600Y38200D02*
X600Y37380D01*
X-1369Y30000D02*
X-5306Y30000D01*
X-3337Y28031D02*
X-3337Y31969D01*
X-4813Y30000D02*
G75*
D01*
G02X-4813Y30000I1476J0*
G01*
X17969Y30000D02*
X21906Y30000D01*
X19937Y28031D02*
X19937Y31969D01*
X18461Y30000D02*
G75*
D01*
G02X18461Y30000I1476J0*
G01*
X19445Y30000D02*
G75*
D01*
G02X19445Y30000I492J0*
G01*
X-1369Y38200D02*
X-5306Y38200D01*
X-3337Y36231D02*
X-3337Y40169D01*
X-4813Y38200D02*
G75*
D01*
G02X-4813Y38200I1476J0*
G01*
X-4321Y38200D02*
G75*
D01*
G02X-4321Y38200I984J0*
G01*
X-3829Y38200D02*
G75*
D01*
G02X-3829Y38200I492J0*
G01*
G54D12*
X8100Y34100D03*
X6500Y32800D03*
X6000Y32300D03*
X7600Y32600D03*
X11100Y36100D03*
G54D13*
X1800Y37000D03*
X1800Y31200D03*
X14800Y37000D03*
X14800Y31200D03*
G54D14*
X4700Y33400D03*
X4700Y35400D03*
X4700Y34400D03*
X4700Y32400D03*
X1600Y34100D03*
X1600Y33100D03*
X14950Y33600D03*
G54D15*
X4700Y36400D03*
X1600Y35100D03*
X14950Y34600D03*
G54D16*
X4596Y36296D02*
X4804Y36296D01*
X4804Y36504D01*
X4596Y36504D01*
X4596Y36296D01*D02*
X1496Y34996D02*
X1704Y34996D01*
X1704Y35204D01*
X1496Y35204D01*
X1496Y34996D01*D02*
X14846Y34496D02*
X15054Y34496D01*
X15054Y34704D01*
X14846Y34704D01*
X14846Y34496D01*D02*
G54D17*
X3300Y34075D03*
X3300Y33325D03*
X3300Y34825D03*
X3300Y35575D03*
X3300Y31825D03*
X3300Y32575D03*
G54D18*
X3092Y34021D02*
X3508Y34021D01*
X3508Y34129D01*
X3092Y34129D01*
X3092Y34021D01*D02*
X3092Y33271D02*
X3508Y33271D01*
X3508Y33379D01*
X3092Y33379D01*
X3092Y33271D01*D02*
X3092Y34771D02*
X3508Y34771D01*
X3508Y34879D01*
X3092Y34879D01*
X3092Y34771D01*D02*
X3092Y35521D02*
X3508Y35521D01*
X3508Y35629D01*
X3092Y35629D01*
X3092Y35521D01*D02*
X3092Y31771D02*
X3508Y31771D01*
X3508Y31879D01*
X3092Y31879D01*
X3092Y31771D01*D02*
X3092Y32521D02*
X3508Y32521D01*
X3508Y32629D01*
X3092Y32629D01*
X3092Y32521D01*D02*
G54D19*
X10700Y31300D03*
X9798Y31300D03*
X8897Y31300D03*

M02*
