G04 Generated by Ultiboard 14.2 *
%FSLAX24Y24*%
%MOIN*%

%ADD10C,0.0001*%
%ADD11C,0.0100*%
%ADD12C,0.0200*%
%ADD13C,0.0050*%
%ADD14C,0.0394*%
%ADD15C,0.0633*%
%ADD16R,0.0208X0.0208*%
%ADD17C,0.0392*%
%ADD18R,0.0417X0.0108*%
%ADD19C,0.0167*%
%ADD20C,0.0560*%


G04 ColorRGB 0000FF for the following layer *
%LNCopper Bottom*%
%LPD*%
G54D10*
G36*
X1708Y37949D02*
X1708Y37949D01*
X14892Y37949D01*
G75*
D01*
G03X14900Y37949I8J151*
G01*
G74*
D01*
G02X15749Y37100I0J849*
G01*
G75*
D01*
G03X15750Y37092I151J0*
G01*
X15750Y37092D01*
X15750Y31108D01*
G74*
D01*
G03X15749Y31100I150J8*
G01*
G75*
D01*
G02X14900Y30251I-849J0*
G01*
G75*
D01*
G03X14892Y30251I0J-151*
G01*
X14892Y30251D01*
X1708Y30251D01*
X1700Y30251D01*
G75*
D01*
G02X851Y31100I0J849*
G01*
X851Y31108D01*
X851Y31108D01*
X851Y37092D01*
G75*
D01*
G03X851Y37100I-151J8*
G01*
G75*
D01*
G02X1700Y37949I849J0*
G01*
X1708Y37949D01*
D02*
G37*
%LPC*%
G36*
X4000Y37451D02*
G75*
D01*
G03X3822Y37378I0J-251*
G01*
X3822Y37378D01*
X3122Y36678D01*
G75*
D01*
G03X3049Y36500I178J-178*
G01*
X3049Y36500D01*
X3049Y35860D01*
G74*
D01*
G03X2965Y35826I43J231*
G01*
X2965Y35826D01*
X2176Y35826D01*
G75*
D01*
G03X2116Y35819I0J-251*
G01*
G74*
D01*
G03X1998Y35753I60J244*
G01*
X1998Y35753D01*
X1787Y35542D01*
G74*
D01*
G03X1704Y35552I83J338*
G01*
X1704Y35552D01*
X1496Y35552D01*
G75*
D01*
G03X1148Y35204I0J-348*
G01*
X1148Y35204D01*
X1148Y34996D01*
G75*
D01*
G03X1496Y34648I348J0*
G01*
X1496Y34648D01*
X1704Y34648D01*
G75*
D01*
G03X2052Y34996I0J348*
G01*
X2052Y34996D01*
X2052Y35096D01*
X2280Y35324D01*
X2965Y35324D01*
G75*
D01*
G03X3092Y35286I127J197*
G01*
X3092Y35286D01*
X3508Y35286D01*
G75*
D01*
G03X3743Y35521I0J235*
G01*
X3743Y35521D01*
X3743Y35629D01*
G74*
D01*
G03X3551Y35860I235J0*
G01*
X3551Y35860D01*
X3551Y36396D01*
X4104Y36949D01*
X11956Y36949D01*
X14482Y34422D01*
G74*
D01*
G03X14513Y34396I178J178*
G01*
G75*
D01*
G03X14846Y34148I333J100*
G01*
X14846Y34148D01*
X15054Y34148D01*
G75*
D01*
G03X15402Y34496I0J348*
G01*
X15402Y34496D01*
X15402Y34704D01*
G74*
D01*
G03X15054Y35052I348J0*
G01*
X15054Y35052D01*
X14846Y35052D01*
G75*
D01*
G03X14635Y34980I0J-348*
G01*
X14635Y34980D01*
X12238Y37377D01*
G74*
D01*
G03X12060Y37451I178J177*
G01*
X12060Y37451D01*
X4000Y37451D01*
D02*
G37*
G36*
X9621Y32478D02*
G75*
D01*
G03X9547Y32300I177J-178*
G01*
X9547Y32300D01*
X9547Y31671D01*
G75*
D01*
G03X10050Y31671I251J-371*
G01*
X10050Y31671D01*
X10050Y32196D01*
X11202Y33349D01*
X14557Y33349D01*
G75*
D01*
G03X14557Y33851I393J251*
G01*
X14557Y33851D01*
X11351Y33851D01*
X11351Y35861D01*
G75*
D01*
G03X10849Y35861I-251J239*
G01*
X10849Y35861D01*
X10849Y33706D01*
X9998Y32855D01*
X9998Y32855D01*
X9621Y32478D01*
D02*
G37*
G36*
X14040Y37000D02*
G75*
D01*
G03X14040Y37000I760J0*
G01*
D02*
G37*
G36*
X14040Y31200D02*
G75*
D01*
G03X14040Y31200I760J0*
G01*
D02*
G37*
G36*
X11109Y31484D02*
X11109Y31484D01*
X10925Y31300D01*
X11109Y31116D01*
G75*
D01*
G03X11109Y31484I-409J184*
G01*
D02*
G37*
G36*
X10490Y31300D02*
G75*
D01*
G03X10490Y31300I210J0*
G01*
D02*
G37*
G36*
X10291Y31484D02*
G75*
D01*
G03X10291Y31116I409J-184*
G01*
X10291Y31116D01*
X10475Y31300D01*
X10291Y31484D01*
D02*
G37*
G36*
X10884Y30891D02*
X10884Y30891D01*
X10700Y31075D01*
X10516Y30891D01*
G75*
D01*
G03X10884Y30891I184J409*
G01*
D02*
G37*
G36*
X10516Y31709D02*
X10516Y31709D01*
X10700Y31525D01*
X10884Y31709D01*
G75*
D01*
G03X10516Y31709I-184J-409*
G01*
D02*
G37*
G36*
X4804Y36852D02*
X4804Y36852D01*
X4596Y36852D01*
G75*
D01*
G03X4248Y36504I0J-348*
G01*
X4248Y36504D01*
X4248Y36296D01*
G75*
D01*
G03X4596Y35948I348J0*
G01*
X4596Y35948D01*
X4804Y35948D01*
G75*
D01*
G03X5152Y36296I0J348*
G01*
X5152Y36296D01*
X5152Y36504D01*
G74*
D01*
G03X4804Y36852I348J0*
G01*
D02*
G37*
G36*
X4233Y35400D02*
G75*
D01*
G03X4233Y35400I467J0*
G01*
D02*
G37*
G36*
X4523Y33968D02*
G75*
D01*
G03X4233Y34389I177J432*
G01*
X4233Y34389D01*
X3458Y33614D01*
X3092Y33614D01*
G75*
D01*
G03X2857Y33379I0J-235*
G01*
X2857Y33379D01*
X2857Y33271D01*
G75*
D01*
G03X3049Y33040I235J0*
G01*
X3049Y33040D01*
X3049Y32860D01*
G74*
D01*
G03X2857Y32629I43J231*
G01*
X2857Y32629D01*
X2857Y32521D01*
G75*
D01*
G03X3092Y32286I235J0*
G01*
X3092Y32286D01*
X3508Y32286D01*
G75*
D01*
G03X3743Y32521I0J235*
G01*
X3743Y32521D01*
X3743Y32629D01*
G74*
D01*
G03X3551Y32860I235J0*
G01*
X3551Y32860D01*
X3551Y33040D01*
G74*
D01*
G03X3715Y33159I43J231*
G01*
X3715Y33159D01*
X4523Y33968D01*
D02*
G37*
G36*
X1994Y34351D02*
G75*
D01*
G03X1993Y33848I-394J-251*
G01*
X1993Y33848D01*
X2933Y33848D01*
G75*
D01*
G03X3092Y33786I159J173*
G01*
X3092Y33786D01*
X3508Y33786D01*
G75*
D01*
G03X3743Y34021I0J235*
G01*
X3743Y34021D01*
X3743Y34129D01*
G74*
D01*
G03X3551Y34360I235J0*
G01*
X3551Y34360D01*
X3551Y34540D01*
G75*
D01*
G03X3743Y34771I-43J231*
G01*
X3743Y34771D01*
X3743Y34879D01*
G74*
D01*
G03X3508Y35114I235J0*
G01*
X3508Y35114D01*
X3092Y35114D01*
G75*
D01*
G03X2857Y34879I0J-235*
G01*
X2857Y34879D01*
X2857Y34771D01*
G75*
D01*
G03X3049Y34540I235J0*
G01*
X3049Y34540D01*
X3049Y34360D01*
G74*
D01*
G03X3015Y34351I43J231*
G01*
X3015Y34351D01*
X1994Y34351D01*
D02*
G37*
G36*
X1040Y31200D02*
G75*
D01*
G03X1040Y31200I760J0*
G01*
D02*
G37*
G36*
X1040Y37000D02*
G75*
D01*
G03X1040Y37000I760J0*
G01*
D02*
G37*
G36*
X4233Y33400D02*
G75*
D01*
G03X4233Y33400I467J0*
G01*
D02*
G37*
G36*
X1765Y33536D02*
X1765Y33536D01*
X1765Y33265D01*
X2036Y33265D01*
G74*
D01*
G03X1765Y33536I436J165*
G01*
D02*
G37*
G36*
X1164Y33265D02*
X1164Y33265D01*
X1435Y33265D01*
X1435Y33536D01*
G74*
D01*
G03X1164Y33265I165J436*
G01*
D02*
G37*
G36*
X2036Y32935D02*
X2036Y32935D01*
X1765Y32935D01*
X1765Y32664D01*
G74*
D01*
G03X2036Y32935I165J436*
G01*
D02*
G37*
G36*
X1435Y32664D02*
X1435Y32664D01*
X1435Y32935D01*
X1164Y32935D01*
G74*
D01*
G03X1435Y32664I436J165*
G01*
D02*
G37*
G36*
X1425Y33100D02*
G75*
D01*
G03X1425Y33100I175J0*
G01*
D02*
G37*
G36*
X6312Y32451D02*
G75*
D01*
G03X6102Y31969I-312J-151*
G01*
G75*
D01*
G03X6200Y31949I98J231*
G01*
X6200Y31949D01*
X7300Y31949D01*
G75*
D01*
G03X7374Y31960I0J251*
G01*
G74*
D01*
G03X7478Y32023I74J240*
G01*
X7478Y32023D01*
X7736Y32281D01*
G75*
D01*
G03X7263Y32518I-136J319*
G01*
X7263Y32518D01*
X7196Y32451D01*
X6312Y32451D01*
D02*
G37*
G36*
X7861Y34351D02*
X7861Y34351D01*
X7000Y34351D01*
G75*
D01*
G03X6822Y34278I0J-251*
G01*
X6822Y34278D01*
X6322Y33778D01*
G75*
D01*
G03X6249Y33600I178J-178*
G01*
X6249Y33600D01*
X6249Y33039D01*
G75*
D01*
G03X6751Y33039I251J-239*
G01*
X6751Y33039D01*
X6751Y33496D01*
X7104Y33849D01*
X7861Y33849D01*
G75*
D01*
G03X7861Y34351I239J251*
G01*
D02*
G37*
G36*
X4233Y32400D02*
G75*
D01*
G03X4233Y32400I467J0*
G01*
D02*
G37*
G36*
X3721Y31673D02*
G75*
D01*
G03X3743Y31771I-213J98*
G01*
X3743Y31771D01*
X3743Y31879D01*
G74*
D01*
G03X3721Y31977I235J0*
G01*
X3721Y31977D01*
X3487Y31825D01*
X3721Y31673D01*
D02*
G37*
G36*
X3550Y32110D02*
G74*
D01*
G03X3508Y32114I42J231*
G01*
X3508Y32114D01*
X3092Y32114D01*
G75*
D01*
G03X3050Y32110I0J-235*
G01*
X3050Y32110D01*
X3300Y31947D01*
X3550Y32110D01*
D02*
G37*
G36*
X2879Y31673D02*
X2879Y31673D01*
X3113Y31825D01*
X2879Y31977D01*
G74*
D01*
G03X2857Y31879I213J98*
G01*
X2857Y31879D01*
X2857Y31771D01*
G75*
D01*
G03X2879Y31673I235J0*
G01*
D02*
G37*
G36*
X3050Y31540D02*
G75*
D01*
G03X3092Y31536I42J231*
G01*
X3092Y31536D01*
X3508Y31536D01*
G74*
D01*
G03X3550Y31540I0J235*
G01*
X3550Y31540D01*
X3300Y31703D01*
X3050Y31540D01*
D02*
G37*
G36*
X8449Y31300D02*
G75*
D01*
G03X8449Y31300I448J0*
G01*
D02*
G37*
%LPD*%
G54D11*
X4000Y37451D02*
G75*
D01*
G03X3822Y37378I0J-251*
G01*
X3122Y36678D01*
G75*
D01*
G03X3049Y36500I178J-178*
G01*
X3049Y35860D01*
G74*
D01*
G03X2965Y35826I43J231*
G01*
X2176Y35826D01*
G75*
D01*
G03X2116Y35819I0J-251*
G01*
G74*
D01*
G03X1998Y35753I60J244*
G01*
X1787Y35542D01*
G74*
D01*
G03X1704Y35552I83J338*
G01*
X1496Y35552D01*
G75*
D01*
G03X1148Y35204I0J-348*
G01*
X1148Y34996D01*
G75*
D01*
G03X1496Y34648I348J0*
G01*
X1704Y34648D01*
G75*
D01*
G03X2052Y34996I0J348*
G01*
X2052Y35096D01*
X2280Y35324D01*
X2965Y35324D01*
G75*
D01*
G03X3092Y35286I127J197*
G01*
X3508Y35286D01*
G75*
D01*
G03X3743Y35521I0J235*
G01*
X3743Y35629D01*
G74*
D01*
G03X3551Y35860I235J0*
G01*
X3551Y36396D01*
X4104Y36949D01*
X11956Y36949D01*
X14482Y34422D01*
G74*
D01*
G03X14513Y34396I178J178*
G01*
G75*
D01*
G03X14846Y34148I333J100*
G01*
X15054Y34148D01*
G75*
D01*
G03X15402Y34496I0J348*
G01*
X15402Y34704D01*
G74*
D01*
G03X15054Y35052I348J0*
G01*
X14846Y35052D01*
G75*
D01*
G03X14635Y34980I0J-348*
G01*
X12238Y37377D01*
G74*
D01*
G03X12060Y37451I178J177*
G01*
X4000Y37451D01*
X9621Y32478D02*
G75*
D01*
G03X9547Y32300I177J-178*
G01*
X9547Y31671D01*
G75*
D01*
G03X10050Y31671I251J-371*
G01*
X10050Y32196D01*
X11202Y33349D01*
X14557Y33349D01*
G75*
D01*
G03X14557Y33851I393J251*
G01*
X11351Y33851D01*
X11351Y35861D01*
G75*
D01*
G03X10849Y35861I-251J239*
G01*
X10849Y33706D01*
X9998Y32855D01*
X9998Y32855D01*
X9621Y32478D01*
X14040Y37000D02*
G75*
D01*
G03X14040Y37000I760J0*
G01*
X14040Y31200D02*
G75*
D01*
G03X14040Y31200I760J0*
G01*
X11109Y31484D02*
X10925Y31300D01*
X11109Y31116D01*
G75*
D01*
G03X11109Y31484I-409J184*
G01*
X10490Y31300D02*
G75*
D01*
G03X10490Y31300I210J0*
G01*
X10291Y31484D02*
G75*
D01*
G03X10291Y31116I409J-184*
G01*
X10475Y31300D01*
X10291Y31484D01*
X10884Y30891D02*
X10700Y31075D01*
X10516Y30891D01*
G75*
D01*
G03X10884Y30891I184J409*
G01*
X10516Y31709D02*
X10700Y31525D01*
X10884Y31709D01*
G75*
D01*
G03X10516Y31709I-184J-409*
G01*
X4804Y36852D02*
X4596Y36852D01*
G75*
D01*
G03X4248Y36504I0J-348*
G01*
X4248Y36296D01*
G75*
D01*
G03X4596Y35948I348J0*
G01*
X4804Y35948D01*
G75*
D01*
G03X5152Y36296I0J348*
G01*
X5152Y36504D01*
G74*
D01*
G03X4804Y36852I348J0*
G01*
X4233Y35400D02*
G75*
D01*
G03X4233Y35400I467J0*
G01*
X4523Y33968D02*
G75*
D01*
G03X4233Y34389I177J432*
G01*
X3458Y33614D01*
X3092Y33614D01*
G75*
D01*
G03X2857Y33379I0J-235*
G01*
X2857Y33271D01*
G75*
D01*
G03X3049Y33040I235J0*
G01*
X3049Y32860D01*
G74*
D01*
G03X2857Y32629I43J231*
G01*
X2857Y32521D01*
G75*
D01*
G03X3092Y32286I235J0*
G01*
X3508Y32286D01*
G75*
D01*
G03X3743Y32521I0J235*
G01*
X3743Y32629D01*
G74*
D01*
G03X3551Y32860I235J0*
G01*
X3551Y33040D01*
G74*
D01*
G03X3715Y33159I43J231*
G01*
X4523Y33968D01*
X1994Y34351D02*
G75*
D01*
G03X1993Y33848I-394J-251*
G01*
X2933Y33848D01*
G75*
D01*
G03X3092Y33786I159J173*
G01*
X3508Y33786D01*
G75*
D01*
G03X3743Y34021I0J235*
G01*
X3743Y34129D01*
G74*
D01*
G03X3551Y34360I235J0*
G01*
X3551Y34540D01*
G75*
D01*
G03X3743Y34771I-43J231*
G01*
X3743Y34879D01*
G74*
D01*
G03X3508Y35114I235J0*
G01*
X3092Y35114D01*
G75*
D01*
G03X2857Y34879I0J-235*
G01*
X2857Y34771D01*
G75*
D01*
G03X3049Y34540I235J0*
G01*
X3049Y34360D01*
G74*
D01*
G03X3015Y34351I43J231*
G01*
X1994Y34351D01*
X1040Y31200D02*
G75*
D01*
G03X1040Y31200I760J0*
G01*
X1040Y37000D02*
G75*
D01*
G03X1040Y37000I760J0*
G01*
X4233Y33400D02*
G75*
D01*
G03X4233Y33400I467J0*
G01*
X1765Y33536D02*
X1765Y33265D01*
X2036Y33265D01*
G74*
D01*
G03X1765Y33536I436J165*
G01*
X1164Y33265D02*
X1435Y33265D01*
X1435Y33536D01*
G74*
D01*
G03X1164Y33265I165J436*
G01*
X2036Y32935D02*
X1765Y32935D01*
X1765Y32664D01*
G74*
D01*
G03X2036Y32935I165J436*
G01*
X1435Y32664D02*
X1435Y32935D01*
X1164Y32935D01*
G74*
D01*
G03X1435Y32664I436J165*
G01*
X1425Y33100D02*
G75*
D01*
G03X1425Y33100I175J0*
G01*
X6312Y32451D02*
G75*
D01*
G03X6102Y31969I-312J-151*
G01*
G75*
D01*
G03X6200Y31949I98J231*
G01*
X7300Y31949D01*
G75*
D01*
G03X7374Y31960I0J251*
G01*
G74*
D01*
G03X7478Y32023I74J240*
G01*
X7736Y32281D01*
G75*
D01*
G03X7263Y32518I-136J319*
G01*
X7196Y32451D01*
X6312Y32451D01*
X7861Y34351D02*
X7000Y34351D01*
G75*
D01*
G03X6822Y34278I0J-251*
G01*
X6322Y33778D01*
G75*
D01*
G03X6249Y33600I178J-178*
G01*
X6249Y33039D01*
G75*
D01*
G03X6751Y33039I251J-239*
G01*
X6751Y33496D01*
X7104Y33849D01*
X7861Y33849D01*
G75*
D01*
G03X7861Y34351I239J251*
G01*
X4233Y32400D02*
G75*
D01*
G03X4233Y32400I467J0*
G01*
X3721Y31673D02*
G75*
D01*
G03X3743Y31771I-213J98*
G01*
X3743Y31879D01*
G74*
D01*
G03X3721Y31977I235J0*
G01*
X3487Y31825D01*
X3721Y31673D01*
X3550Y32110D02*
G74*
D01*
G03X3508Y32114I42J231*
G01*
X3092Y32114D01*
G75*
D01*
G03X3050Y32110I0J-235*
G01*
X3300Y31947D01*
X3550Y32110D01*
X2879Y31673D02*
X3113Y31825D01*
X2879Y31977D01*
G74*
D01*
G03X2857Y31879I213J98*
G01*
X2857Y31771D01*
G75*
D01*
G03X2879Y31673I235J0*
G01*
X3050Y31540D02*
G75*
D01*
G03X3092Y31536I42J231*
G01*
X3508Y31536D01*
G74*
D01*
G03X3550Y31540I0J235*
G01*
X3300Y31703D01*
X3050Y31540D01*
X8449Y31300D02*
G75*
D01*
G03X8449Y31300I448J0*
G01*
X1708Y37949D02*
X14892Y37949D01*
G75*
D01*
G03X14900Y37949I8J151*
G01*
G74*
D01*
G02X15749Y37100I0J849*
G01*
G75*
D01*
G03X15750Y37092I151J0*
G01*
X15750Y31108D01*
G74*
D01*
G03X15749Y31100I150J8*
G01*
G75*
D01*
G02X14900Y30251I-849J0*
G01*
G75*
D01*
G03X14892Y30251I0J-151*
G01*
X1708Y30251D01*
X1700Y30251D01*
G75*
D01*
G02X851Y31100I0J849*
G01*
X851Y31108D01*
X851Y37092D01*
G75*
D01*
G03X851Y37100I-151J8*
G01*
G75*
D01*
G02X1700Y37949I849J0*
G01*
X1708Y37949D01*
G54D12*
X7600Y32500D02*
X7600Y32600D01*
X7000Y34100D02*
X8100Y34100D01*
X6500Y33600D02*
X6500Y33000D01*
X6500Y33600D02*
X7000Y34100D01*
X7300Y32200D02*
X6200Y32200D01*
X7600Y32500D02*
X7300Y32200D01*
X3300Y34075D02*
X3300Y34825D01*
X1700Y34099D02*
X3276Y34099D01*
X3300Y32575D02*
X3300Y33325D01*
X3525Y33325D02*
X4559Y34359D01*
X4659Y34359D01*
X3300Y33325D02*
X3525Y33325D01*
X3300Y35575D02*
X2176Y35575D01*
X1700Y35099D01*
X3300Y36500D02*
X4000Y37200D01*
X9400Y37200D01*
X3300Y35575D02*
X3300Y36500D01*
X9400Y37200D02*
X11600Y37200D01*
X12060Y37200D02*
X11600Y37200D01*
X12060Y37200D02*
X14660Y34600D01*
X11100Y36100D02*
X11100Y33600D01*
X9798Y32300D02*
X11098Y33600D01*
X14660Y33600D01*
X9798Y32300D02*
X9798Y31300D01*
G54D13*
X600Y30000D02*
X600Y30820D01*
X600Y30000D02*
X2140Y30000D01*
X16000Y30000D02*
X14460Y30000D01*
X16000Y30000D02*
X16000Y30820D01*
X16000Y38200D02*
X16000Y37380D01*
X16000Y38200D02*
X14460Y38200D01*
X600Y38200D02*
X2140Y38200D01*
X600Y38200D02*
X600Y37380D01*
X-1369Y30000D02*
X-5306Y30000D01*
X-3337Y28031D02*
X-3337Y31969D01*
X-4813Y30000D02*
G75*
D01*
G02X-4813Y30000I1476J0*
G01*
X17969Y30000D02*
X21906Y30000D01*
X19937Y28031D02*
X19937Y31969D01*
X18461Y30000D02*
G75*
D01*
G02X18461Y30000I1476J0*
G01*
X19445Y30000D02*
G75*
D01*
G02X19445Y30000I492J0*
G01*
X-1369Y38200D02*
X-5306Y38200D01*
X-3337Y36231D02*
X-3337Y40169D01*
X-4813Y38200D02*
G75*
D01*
G02X-4813Y38200I1476J0*
G01*
X-4321Y38200D02*
G75*
D01*
G02X-4321Y38200I984J0*
G01*
X-3829Y38200D02*
G75*
D01*
G02X-3829Y38200I492J0*
G01*
G54D14*
X8100Y34100D03*
X6500Y32800D03*
X6000Y32300D03*
X7600Y32600D03*
X11100Y36100D03*
G54D15*
X4700Y33400D03*
X4700Y35400D03*
X4700Y34400D03*
X4700Y32400D03*
X1600Y34100D03*
X1600Y33100D03*
X14950Y33600D03*
G54D16*
X4700Y36400D03*
X1600Y35100D03*
X14950Y34600D03*
G54D17*
X4596Y36296D02*
X4804Y36296D01*
X4804Y36504D01*
X4596Y36504D01*
X4596Y36296D01*D02*
X1496Y34996D02*
X1704Y34996D01*
X1704Y35204D01*
X1496Y35204D01*
X1496Y34996D01*D02*
X14846Y34496D02*
X15054Y34496D01*
X15054Y34704D01*
X14846Y34704D01*
X14846Y34496D01*D02*
G54D18*
X3300Y34075D03*
X3300Y33325D03*
X3300Y34825D03*
X3300Y35575D03*
X3300Y31825D03*
X3300Y32575D03*
G54D19*
X3092Y34021D02*
X3508Y34021D01*
X3508Y34129D01*
X3092Y34129D01*
X3092Y34021D01*D02*
X3092Y33271D02*
X3508Y33271D01*
X3508Y33379D01*
X3092Y33379D01*
X3092Y33271D01*D02*
X3092Y34771D02*
X3508Y34771D01*
X3508Y34879D01*
X3092Y34879D01*
X3092Y34771D01*D02*
X3092Y35521D02*
X3508Y35521D01*
X3508Y35629D01*
X3092Y35629D01*
X3092Y35521D01*D02*
X3092Y31771D02*
X3508Y31771D01*
X3508Y31879D01*
X3092Y31879D01*
X3092Y31771D01*D02*
X3092Y32521D02*
X3508Y32521D01*
X3508Y32629D01*
X3092Y32629D01*
X3092Y32521D01*D02*
G54D20*
X10700Y31300D03*
X9798Y31300D03*
X8897Y31300D03*

M02*
