M48
INCH,TZ
VER,1
FMAT,2
DETECT,ON
ATC,ON
T1C0.0236
T2C0.1220
T3C0.0350
T4C0.0392
T5C0.0420
%
T1
X8100Y34100
X6500Y32800
X6000Y32300
X7600Y32600
X11100Y36100
T2
X1800Y37000
Y31200
X14800Y37000
Y31200
T3
X4700Y33400
Y35400
Y34400
Y32400
X1600Y34100
Y33100
X14950Y33600
T4
X4700Y36400
X1600Y35100
X14950Y34600
T5
X10700Y31300
X9798
X8897
M30
