G04 Generated by Ultiboard 14.2 *
%FSLAX24Y24*%
%MOIN*%

%ADD10C,0.0001*%
%ADD11C,0.0061*%
%ADD12C,0.0200*%
%ADD13C,0.0037*%
%ADD14C,0.0080*%
%ADD15C,0.0079*%
%ADD16C,0.0197*%
%ADD17C,0.0052*%
%ADD18C,0.0031*%
%ADD19C,0.0098*%
%ADD20C,0.0070*%
%ADD21C,0.0040*%
%ADD22C,0.0010*%
%ADD23C,0.0050*%


G04 ColorRGB FFFF00 for the following layer *
%LNSilkscreen Top*%
%LPD*%
G54D10*
G54D11*
X2367Y34561D02*
X2761Y34561D01*
X2761Y34404D01*
X2682Y34326D01*
X2643Y34326D01*
X2564Y34404D01*
X2564Y34561D01*
X2761Y34208D02*
X2367Y34169D01*
X2524Y34090D01*
X2367Y34012D01*
X2761Y33973D01*
X2367Y33855D02*
X2761Y33855D01*
X2564Y33738D01*
X2761Y33620D01*
X2367Y33620D01*
X2564Y32804D02*
X2564Y32726D01*
X2446Y32726D01*
X2367Y32804D01*
X2367Y32882D01*
X2446Y32961D01*
X2682Y32961D01*
X2761Y32882D01*
X2761Y32726D01*
X2367Y32608D02*
X2761Y32608D01*
X2367Y32373D01*
X2761Y32373D01*
X2367Y32255D02*
X2367Y32099D01*
X2446Y32020D01*
X2682Y32020D01*
X2761Y32099D01*
X2761Y32255D01*
X2761Y32216D02*
X2367Y32216D01*
X2761Y36061D02*
X2367Y35943D01*
X2761Y35826D01*
X2367Y35630D02*
X2367Y35551D01*
X2761Y35630D02*
X2761Y35551D01*
X2367Y35590D02*
X2761Y35590D01*
X2367Y35355D02*
X2761Y35355D01*
X2367Y35120D01*
X2761Y35120D01*
X13639Y31839D02*
X14033Y31957D01*
X13639Y32074D01*
X13954Y32192D02*
X14033Y32270D01*
X14033Y32349D01*
X13954Y32427D01*
X13718Y32427D01*
X13639Y32349D01*
X13639Y32270D01*
X13718Y32192D01*
X13954Y32192D01*
X13639Y32545D02*
X13954Y32545D01*
X14033Y32623D01*
X14033Y32701D01*
X13954Y32780D01*
X13639Y32780D01*
X14033Y33015D02*
X13639Y33015D01*
X13639Y32897D02*
X13639Y33133D01*
X13876Y33250D02*
X13876Y33485D01*
X13639Y34739D02*
X14033Y34857D01*
X13639Y34974D01*
X13954Y35092D02*
X14033Y35170D01*
X14033Y35249D01*
X13954Y35327D01*
X13718Y35327D01*
X13639Y35249D01*
X13639Y35170D01*
X13718Y35092D01*
X13954Y35092D01*
X13639Y35445D02*
X13954Y35445D01*
X14033Y35523D01*
X14033Y35601D01*
X13954Y35680D01*
X13639Y35680D01*
X14033Y35915D02*
X13639Y35915D01*
X13639Y35797D02*
X13639Y36033D01*
X13876Y36150D02*
X13876Y36385D01*
X13718Y36268D02*
X14033Y36268D01*
X10769Y34497D02*
X10690Y34418D01*
X10612Y34418D01*
X10534Y34497D01*
X10534Y34733D01*
X10612Y34812D01*
X10690Y34812D01*
X10769Y34733D01*
X11122Y34812D02*
X10886Y34812D01*
X10886Y34654D01*
X11043Y34654D01*
X11122Y34576D01*
X11122Y34497D01*
X11043Y34418D01*
X10886Y34418D01*
G54D12*
X5400Y34400D02*
X5400Y33400D01*
X5400Y36400D02*
X5400Y35400D01*
X4000Y34400D02*
X4000Y35400D01*
X4000Y32400D02*
X4000Y33400D01*
G54D13*
X2939Y35967D02*
X2939Y36361D01*
X3096Y36361D01*
X3174Y36282D01*
X3174Y36243D01*
X3096Y36164D01*
X2939Y36164D01*
X2978Y36164D02*
X3174Y35967D01*
X3527Y36124D02*
X3292Y36124D01*
X3488Y36361D01*
X3488Y35967D01*
X3449Y35967D02*
X3527Y35967D01*
X2939Y32467D02*
X2939Y32861D01*
X3096Y32861D01*
X3174Y32782D01*
X3174Y32743D01*
X3096Y32664D01*
X2939Y32664D01*
X2978Y32664D02*
X3174Y32467D01*
X3527Y32861D02*
X3292Y32861D01*
X3292Y32703D01*
X3449Y32703D01*
X3527Y32624D01*
X3527Y32546D01*
X3449Y32467D01*
X3292Y32467D01*
X8339Y32167D02*
X8339Y32561D01*
X8496Y32561D01*
X8574Y32482D01*
X8574Y32443D01*
X8496Y32364D01*
X8339Y32364D01*
X8378Y32364D02*
X8574Y32167D01*
X8731Y32482D02*
X8809Y32561D01*
X8809Y32167D01*
X8692Y32167D02*
X8927Y32167D01*
X9045Y32482D02*
X9123Y32561D01*
X9201Y32561D01*
X9280Y32482D01*
X9280Y32246D01*
X9201Y32167D01*
X9123Y32167D01*
X9045Y32246D01*
X9045Y32482D01*
X9280Y32482D02*
X9045Y32246D01*
X7839Y34667D02*
X7839Y35061D01*
X7996Y35061D01*
X8074Y34982D01*
X8074Y34943D01*
X7996Y34864D01*
X7839Y34864D01*
X7878Y34864D02*
X8074Y34667D01*
X8192Y34746D02*
X8270Y34667D01*
X8349Y34667D01*
X8427Y34746D01*
X8427Y34903D01*
X8427Y34982D01*
X8349Y35061D01*
X8270Y35061D01*
X8192Y34982D01*
X8192Y34903D01*
X8270Y34824D01*
X8349Y34824D01*
X8427Y34903D01*
X9874Y36846D02*
X9796Y36767D01*
X9718Y36767D01*
X9639Y36846D01*
X9639Y37082D01*
X9718Y37161D01*
X9796Y37161D01*
X9874Y37082D01*
X10031Y37082D02*
X10109Y37161D01*
X10109Y36767D01*
X9992Y36767D02*
X10227Y36767D01*
X8639Y36767D02*
X8639Y37161D01*
X8796Y37161D01*
X8874Y37082D01*
X8874Y37043D01*
X8796Y36964D01*
X8639Y36964D01*
X8678Y36964D02*
X8874Y36767D01*
X9149Y36767D02*
X9070Y36767D01*
X8992Y36846D01*
X8992Y36924D01*
X9031Y36964D01*
X8992Y37003D01*
X8992Y37082D01*
X9070Y37161D01*
X9149Y37161D01*
X9227Y37082D01*
X9227Y37003D01*
X9188Y36964D01*
X9227Y36924D01*
X9227Y36846D01*
X9149Y36767D01*
X9031Y36964D02*
X9188Y36964D01*
X6739Y37567D02*
X6739Y37961D01*
X6896Y37961D01*
X6974Y37882D01*
X6974Y37843D01*
X6896Y37764D01*
X6739Y37764D01*
X6778Y37764D02*
X6974Y37567D01*
X7288Y37961D02*
X7170Y37961D01*
X7092Y37882D01*
X7092Y37724D01*
X7092Y37646D01*
X7170Y37567D01*
X7249Y37567D01*
X7327Y37646D01*
X7327Y37724D01*
X7249Y37803D01*
X7170Y37803D01*
X7092Y37724D01*
X7739Y37567D02*
X7739Y37961D01*
X7896Y37961D01*
X7974Y37882D01*
X7974Y37843D01*
X7896Y37764D01*
X7739Y37764D01*
X7778Y37764D02*
X7974Y37567D01*
X8209Y37567D02*
X8209Y37764D01*
X8327Y37882D01*
X8327Y37961D01*
X8092Y37961D01*
X8092Y37882D01*
X7774Y31846D02*
X7696Y31767D01*
X7618Y31767D01*
X7539Y31846D01*
X7539Y32082D01*
X7618Y32161D01*
X7696Y32161D01*
X7774Y32082D01*
X7931Y32121D02*
X7970Y32161D01*
X8049Y32161D01*
X8127Y32082D01*
X8127Y32003D01*
X8088Y31964D01*
X8127Y31924D01*
X8127Y31846D01*
X8049Y31767D01*
X7970Y31767D01*
X7931Y31806D01*
X7970Y31964D02*
X8088Y31964D01*
X6339Y31767D02*
X6339Y32161D01*
X6496Y32161D01*
X6574Y32082D01*
X6574Y32043D01*
X6496Y31964D01*
X6339Y31964D01*
X6378Y31964D02*
X6574Y31767D01*
X6731Y32082D02*
X6809Y32161D01*
X6809Y31767D01*
X6692Y31767D02*
X6927Y31767D01*
X7045Y32082D02*
X7123Y32161D01*
X7201Y32161D01*
X7280Y32082D01*
X7280Y32043D01*
X7045Y31767D01*
X7280Y31767D01*
X7280Y31806D01*
X5974Y37646D02*
X5896Y37567D01*
X5818Y37567D01*
X5739Y37646D01*
X5739Y37882D01*
X5818Y37961D01*
X5896Y37961D01*
X5974Y37882D01*
X6327Y37724D02*
X6092Y37724D01*
X6288Y37961D01*
X6288Y37567D01*
X6249Y37567D02*
X6327Y37567D01*
X6939Y34239D02*
X7254Y34239D01*
X7333Y34318D01*
X7333Y34396D01*
X7254Y34474D01*
X6939Y34474D01*
X7018Y34631D02*
X6939Y34710D01*
X7333Y34710D01*
X7333Y34592D02*
X7333Y34827D01*
X5339Y31767D02*
X5339Y32161D01*
X5496Y32161D01*
X5574Y32082D01*
X5574Y32043D01*
X5496Y31964D01*
X5339Y31964D01*
X5378Y31964D02*
X5574Y31767D01*
X5731Y32082D02*
X5809Y32161D01*
X5809Y31767D01*
X5692Y31767D02*
X5927Y31767D01*
X6084Y32082D02*
X6162Y32161D01*
X6162Y31767D01*
X6045Y31767D02*
X6280Y31767D01*
X9639Y30346D02*
X9717Y30268D01*
X9796Y30268D01*
X9874Y30346D01*
X9874Y30582D01*
X9796Y30661D01*
X9717Y30661D01*
X9639Y30582D01*
X9639Y30346D01*
X9796Y30346D02*
X9874Y30268D01*
X10030Y30582D02*
X10108Y30661D01*
X10108Y30268D01*
X9991Y30268D02*
X10226Y30268D01*
X11339Y33767D02*
X11339Y34161D01*
X11496Y34161D01*
X11574Y34082D01*
X11574Y34043D01*
X11496Y33964D01*
X11339Y33964D01*
X11378Y33964D02*
X11574Y33767D01*
X11731Y34082D02*
X11809Y34161D01*
X11809Y33767D01*
X11692Y33767D02*
X11927Y33767D01*
X12084Y34121D02*
X12123Y34161D01*
X12201Y34161D01*
X12280Y34082D01*
X12280Y34003D01*
X12241Y33964D01*
X12280Y33924D01*
X12280Y33846D01*
X12201Y33767D01*
X12123Y33767D01*
X12084Y33806D01*
X12123Y33964D02*
X12241Y33964D01*
X9874Y33246D02*
X9796Y33167D01*
X9718Y33167D01*
X9639Y33246D01*
X9639Y33482D01*
X9718Y33561D01*
X9796Y33561D01*
X9874Y33482D01*
X9992Y33482D02*
X10070Y33561D01*
X10149Y33561D01*
X10227Y33482D01*
X10227Y33443D01*
X9992Y33167D01*
X10227Y33167D01*
X10227Y33206D01*
X11939Y30661D02*
X11939Y30267D01*
X12174Y30267D01*
X12527Y30267D02*
X12292Y30267D01*
X12292Y30464D01*
X12292Y30661D01*
X12527Y30661D01*
X12292Y30464D02*
X12449Y30464D01*
X12645Y30267D02*
X12801Y30267D01*
X12880Y30346D01*
X12880Y30582D01*
X12801Y30661D01*
X12645Y30661D01*
X12684Y30661D02*
X12684Y30267D01*
G54D14*
X3717Y35867D02*
X3717Y34533D01*
X2883Y34533D02*
X2883Y35867D01*
X3717Y34533D02*
X2883Y34533D01*
X2883Y35867D02*
X3717Y35867D01*
X3717Y34367D02*
X3717Y33033D01*
X2883Y33033D02*
X2883Y34367D01*
X3717Y33033D02*
X2883Y33033D01*
X2883Y34367D02*
X3717Y34367D01*
X7933Y33517D02*
X9267Y33517D01*
X9267Y32683D02*
X7933Y32683D01*
X9267Y33517D02*
X9267Y32683D01*
X7933Y32683D02*
X7933Y33517D01*
X8533Y33783D02*
X8533Y35117D01*
X9367Y35117D02*
X9367Y33783D01*
X8533Y35117D02*
X9367Y35117D01*
X9367Y33783D02*
X8533Y33783D01*
X10367Y36617D02*
X10367Y35283D01*
X9533Y35283D02*
X9533Y36617D01*
X10367Y36617D01*
X10367Y35283D02*
X9533Y35283D01*
X8533Y35283D02*
X8533Y36617D01*
X9367Y36617D02*
X9367Y35283D01*
X8533Y36617D02*
X9367Y36617D01*
X9367Y35283D02*
X8533Y35283D01*
X6583Y36133D02*
X6583Y37467D01*
X7417Y37467D02*
X7417Y36133D01*
X6583Y37467D02*
X7417Y37467D01*
X7417Y36133D02*
X6583Y36133D01*
X8417Y37467D02*
X8417Y36133D01*
X7583Y36133D02*
X7583Y37467D01*
X8417Y36133D02*
X7583Y36133D01*
X7583Y37467D02*
X8417Y37467D01*
X8117Y31667D02*
X8117Y30333D01*
X7283Y30333D02*
X7283Y31667D01*
X8117Y31667D01*
X8117Y30333D02*
X7283Y30333D01*
X7117Y31667D02*
X7117Y30333D01*
X6283Y30333D02*
X6283Y31667D01*
X7117Y30333D02*
X6283Y30333D01*
X6283Y31667D02*
X7117Y31667D01*
X5200Y31900D02*
X5200Y35900D01*
X5200Y36150D02*
X5200Y36900D01*
X4200Y36900D01*
X5200Y35983D02*
X4867Y35983D01*
X5117Y36067D02*
X5200Y35983D01*
X5200Y31900D02*
X4200Y31900D01*
X4200Y36900D01*
X6417Y37467D02*
X6417Y36133D01*
X5583Y36133D02*
X5583Y37467D01*
X6417Y37467D01*
X6417Y36133D02*
X5583Y36133D01*
X5283Y30333D02*
X5283Y31667D01*
X6117Y31667D02*
X6117Y30333D01*
X5283Y31667D02*
X6117Y31667D01*
X6117Y30333D02*
X5283Y30333D01*
X4000Y32300D02*
X4000Y31800D01*
X4000Y33500D02*
X4000Y34300D01*
X5400Y34500D02*
X5400Y35300D01*
X5400Y37400D02*
X5400Y36500D01*
X2100Y35600D02*
X1100Y35600D01*
X2100Y32600D02*
X1100Y32600D01*
X2100Y32600D02*
X2100Y34600D01*
X2100Y34850D02*
X2100Y35600D01*
X2100Y34683D02*
X1767Y34683D01*
X2017Y34767D02*
X2100Y34683D01*
X1100Y32600D02*
X1100Y35600D01*
X8303Y30847D02*
X11304Y30847D01*
X11318Y30713D02*
X8291Y30713D01*
X8291Y31741D02*
X11324Y31741D01*
X11327Y30721D02*
X11327Y31725D01*
X12267Y33667D02*
X12267Y32333D01*
X11433Y32333D02*
X11433Y33667D01*
X12267Y32333D02*
X11433Y32333D01*
X11433Y33667D02*
X12267Y33667D01*
X10367Y35117D02*
X10367Y33783D01*
X9533Y33783D02*
X9533Y35117D01*
X10367Y35117D01*
X10367Y33783D02*
X9533Y33783D01*
X14450Y33100D02*
X14450Y35100D01*
X15450Y34350D02*
X15450Y35100D01*
X14450Y35100D01*
X15450Y33100D02*
X15450Y34017D01*
X15450Y34183D02*
X15117Y34183D01*
X15367Y34267D02*
X15450Y34183D01*
X15450Y33100D02*
X14450Y33100D01*
X12483Y32333D02*
X12483Y33667D01*
X13317Y33667D02*
X13317Y32333D01*
X12483Y33667D02*
X13317Y33667D01*
X13317Y32333D02*
X12483Y32333D01*
X10565Y32498D02*
X11235Y32498D01*
X11235Y33502D01*
X10565Y33502D01*
X10565Y32498D01*
G54D15*
X7665Y33870D02*
X7665Y35130D01*
X5735Y35130D02*
X5735Y33870D01*
X7665Y33870D01*
X7665Y35130D02*
X5735Y35130D01*
X8279Y31723D02*
X8279Y30719D01*
X10601Y35450D02*
X10601Y37399D01*
X13199Y35450D02*
X13199Y37399D01*
X12363Y34801D02*
X12550Y34801D01*
X13199Y35450D01*
X11437Y34801D02*
X11250Y34801D01*
X10601Y35450D01*
X13199Y37399D02*
X12363Y37399D01*
X10601Y37399D02*
X11437Y37399D01*
G54D16*
X6031Y34264D02*
G75*
D01*
G02X6031Y34264I98J0*
G01*
G54D17*
X3334Y31329D02*
X3334Y31531D01*
X3401Y31666D01*
X3468Y31666D01*
X3535Y31531D01*
X3535Y31329D01*
X3334Y31430D02*
X3535Y31430D01*
X3838Y31396D02*
X3770Y31329D01*
X3703Y31329D01*
X3636Y31396D01*
X3636Y31599D01*
X3703Y31666D01*
X3770Y31666D01*
X3838Y31599D01*
X4039Y31329D02*
X4039Y31666D01*
X3938Y31666D02*
X4140Y31666D01*
X4308Y31329D02*
X4375Y31329D01*
X4308Y31666D02*
X4375Y31666D01*
X4341Y31329D02*
X4341Y31666D01*
X4543Y31666D02*
X4644Y31329D01*
X4745Y31666D01*
X5047Y31329D02*
X4845Y31329D01*
X4845Y31498D01*
X4845Y31666D01*
X5047Y31666D01*
X4845Y31498D02*
X4980Y31498D01*
X3787Y31194D02*
X3787Y30856D01*
X3989Y30856D01*
X4090Y30924D02*
X4157Y30856D01*
X4224Y30856D01*
X4291Y30924D01*
X4291Y31126D01*
X4224Y31194D01*
X4157Y31194D01*
X4090Y31126D01*
X4090Y30924D01*
X4392Y31194D02*
X4425Y30856D01*
X4493Y30991D01*
X4560Y30856D01*
X4593Y31194D01*
X3734Y37529D02*
X3734Y37731D01*
X3801Y37866D01*
X3868Y37866D01*
X3935Y37731D01*
X3935Y37529D01*
X3734Y37630D02*
X3935Y37630D01*
X4238Y37596D02*
X4170Y37529D01*
X4103Y37529D01*
X4036Y37596D01*
X4036Y37799D01*
X4103Y37866D01*
X4170Y37866D01*
X4238Y37799D01*
X4439Y37529D02*
X4439Y37866D01*
X4338Y37866D02*
X4540Y37866D01*
X4708Y37529D02*
X4775Y37529D01*
X4708Y37866D02*
X4775Y37866D01*
X4741Y37529D02*
X4741Y37866D01*
X4943Y37866D02*
X5044Y37529D01*
X5145Y37866D01*
X5447Y37529D02*
X5245Y37529D01*
X5245Y37698D01*
X5245Y37866D01*
X5447Y37866D01*
X5245Y37698D02*
X5380Y37698D01*
X4036Y37056D02*
X4036Y37394D01*
X4238Y37056D02*
X4238Y37394D01*
X4036Y37225D02*
X4238Y37225D01*
X4406Y37056D02*
X4473Y37056D01*
X4406Y37394D02*
X4473Y37394D01*
X4439Y37056D02*
X4439Y37394D01*
X4775Y37225D02*
X4842Y37225D01*
X4842Y37124D01*
X4775Y37056D01*
X4708Y37056D01*
X4641Y37124D01*
X4641Y37326D01*
X4708Y37394D01*
X4842Y37394D01*
X4943Y37056D02*
X4943Y37394D01*
X5145Y37056D02*
X5145Y37394D01*
X4943Y37225D02*
X5145Y37225D01*
G54D18*
X12434Y33829D02*
X12434Y34166D01*
X12568Y34166D01*
X12635Y34099D01*
X12635Y34065D01*
X12568Y33998D01*
X12434Y33998D01*
X12467Y33998D02*
X12635Y33829D01*
X12770Y34166D02*
X12770Y33896D01*
X12837Y33829D01*
X13240Y33896D02*
X13173Y33829D01*
X13106Y33829D01*
X13038Y33896D01*
X13038Y33998D01*
X13106Y34065D01*
X13173Y34065D01*
X13240Y33998D01*
X13206Y33964D01*
X13038Y33964D01*
X13542Y33896D02*
X13475Y33829D01*
X13408Y33829D01*
X13341Y33896D01*
X13341Y33964D01*
X13408Y34031D01*
X13475Y34031D01*
X13542Y33964D01*
X13542Y34166D02*
X13542Y33829D01*
G54D19*
X11319Y34525D02*
G75*
D01*
G02X11319Y34525I50J0*
G01*
X10851Y31996D02*
G75*
D01*
G02X10851Y31996I49J0*
G01*
G54D20*
X12609Y31468D02*
X12088Y31468D01*
X12606Y30831D02*
X12101Y30831D01*
G54D21*
X12600Y31150D02*
X12100Y31150D01*
X12300Y31350D02*
X12300Y30950D01*
X11089Y33086D02*
X10689Y33086D01*
X10889Y32786D02*
X10889Y33186D01*
G54D22*
G36*
X12500Y30950D02*
X12500Y30950D01*
X12300Y31150D01*
X12500Y31350D01*
X12500Y30950D01*
D02*
G37*
X12300Y31150D01*
X12500Y31350D01*
X12500Y30950D01*
G36*
X10689Y32886D02*
X10689Y32886D01*
X10889Y33086D01*
X11089Y32886D01*
X10689Y32886D01*
D02*
G37*
X10889Y33086D01*
X11089Y32886D01*
X10689Y32886D01*
G54D23*
X600Y30000D02*
X600Y30820D01*
X600Y30000D02*
X2140Y30000D01*
X16000Y30000D02*
X14460Y30000D01*
X16000Y30000D02*
X16000Y30820D01*
X16000Y38200D02*
X16000Y37380D01*
X16000Y38200D02*
X14460Y38200D01*
X600Y38200D02*
X2140Y38200D01*
X600Y38200D02*
X600Y37380D01*
X-1369Y30000D02*
X-5306Y30000D01*
X-3337Y28031D02*
X-3337Y31969D01*
X-4813Y30000D02*
G75*
D01*
G02X-4813Y30000I1476J0*
G01*
X17969Y30000D02*
X21906Y30000D01*
X19937Y28031D02*
X19937Y31969D01*
X18461Y30000D02*
G75*
D01*
G02X18461Y30000I1476J0*
G01*
X19445Y30000D02*
G75*
D01*
G02X19445Y30000I492J0*
G01*
X-1369Y38200D02*
X-5306Y38200D01*
X-3337Y36231D02*
X-3337Y40169D01*
X-4813Y38200D02*
G75*
D01*
G02X-4813Y38200I1476J0*
G01*
X-4321Y38200D02*
G75*
D01*
G02X-4321Y38200I984J0*
G01*
X-3829Y38200D02*
G75*
D01*
G02X-3829Y38200I492J0*
G01*

M02*
